<svg width="35" height="35" viewBox="0 0 35 35" fill="none" xmlns="http://www.w3.org/2000/svg">
<path d="M7.29167 11.6666H4.775C4.58644 11.6666 4.49216 11.6666 4.43358 11.6081C4.375 11.5495 4.375 11.4552 4.375 11.2666V9.83331C4.375 7.9477 4.375 7.00489 4.96079 6.4191C5.54657 5.83331 6.48938 5.83331 8.375 5.83331H26.625C28.5106 5.83331 29.4534 5.83331 30.0392 6.4191C30.625 7.00489 30.625 7.94769 30.625 9.83331V11.2666C30.625 11.4552 30.625 11.5495 30.5664 11.6081C30.5078 11.6666 30.4136 11.6666 30.225 11.6666H27.7083V25.1666C27.7083 27.0523 27.7083 27.9951 27.1225 28.5809C26.5368 29.1666 25.594 29.1666 23.7083 29.1666H11.2917C9.40605 29.1666 8.46324 29.1666 7.87745 28.5809C7.29167 27.9951 7.29167 27.0523 7.29167 25.1666V11.6666Z" fill="#7E869E" fill-opacity="0.25"/>
<path d="M7.29167 11.6666V25.1666C7.29167 27.0523 7.29167 27.9951 7.87745 28.5809C8.46324 29.1666 9.40605 29.1666 11.2917 29.1666H23.7083C25.594 29.1666 26.5368 29.1666 27.1225 28.5809C27.7083 27.9951 27.7083 27.0523 27.7083 25.1666V11.6666M7.29167 11.6666H27.7083M7.29167 11.6666H4.775C4.58644 11.6666 4.49216 11.6666 4.43358 11.6081C4.375 11.5495 4.375 11.4552 4.375 11.2666V9.83331C4.375 7.9477 4.375 7.00489 4.96079 6.4191C5.54657 5.83331 6.48938 5.83331 8.375 5.83331H26.625C28.5106 5.83331 29.4534 5.83331 30.0392 6.4191C30.625 7.00489 30.625 7.94769 30.625 9.83331V11.2666C30.625 11.4552 30.625 11.5495 30.5664 11.6081C30.5078 11.6666 30.4136 11.6666 30.225 11.6666H27.7083" stroke="white" stroke-width="1.4"/>
<path d="M14.5833 23.3333H20.4167" stroke="white" stroke-linecap="round"/>
</svg>
