<svg width="67" height="17" viewBox="0 0 67 17" fill="none" xmlns="http://www.w3.org/2000/svg">
<path d="M5.112 13.2965C4.28 13.2965 3.528 13.1005 2.856 12.7085C2.192 12.3085 1.672 11.7605 1.296 11.0645C0.92 10.3605 0.732 9.56853 0.732 8.68853C0.732 7.80853 0.92 7.01653 1.296 6.31253C1.672 5.60853 2.192 5.06053 2.856 4.66853C3.528 4.26853 4.28 4.06853 5.112 4.06853C5.704 4.06853 6.248 4.17653 6.744 4.39253C7.24 4.60053 7.66 4.87653 8.004 5.22053C8.348 5.56453 8.596 5.93653 8.748 6.33653L7.668 6.82853C7.452 6.31653 7.12 5.91253 6.672 5.61653C6.232 5.31253 5.712 5.16053 5.112 5.16053C4.488 5.16053 3.932 5.30853 3.444 5.60453C2.964 5.90053 2.588 6.31653 2.316 6.85253C2.044 7.38853 1.908 8.00053 1.908 8.68853C1.908 9.37653 2.044 9.98853 2.316 10.5245C2.588 11.0525 2.964 11.4645 3.444 11.7605C3.932 12.0565 4.488 12.2045 5.112 12.2045C5.712 12.2045 6.232 12.0565 6.672 11.7605C7.12 11.4565 7.452 11.0485 7.668 10.5365L8.748 11.0285C8.596 11.4365 8.348 11.8125 8.004 12.1565C7.66 12.5005 7.24 12.7765 6.744 12.9845C6.248 13.1925 5.704 13.2965 5.112 13.2965ZM11.9944 13.2965C11.3544 13.2965 10.8344 13.1285 10.4344 12.7925C10.0344 12.4485 9.83438 12.0045 9.83438 11.4605C9.83438 10.9325 10.0064 10.4925 10.3504 10.1405C10.7024 9.78053 11.2344 9.54053 11.9464 9.42053L14.1544 9.06053V8.76053C14.1544 8.40853 14.0224 8.12453 13.7584 7.90853C13.4944 7.68453 13.1544 7.57253 12.7384 7.57253C12.3704 7.57253 12.0424 7.66853 11.7544 7.86053C11.4744 8.04453 11.2664 8.29253 11.1304 8.60453L10.1584 8.10053C10.3424 7.65253 10.6784 7.28053 11.1664 6.98453C11.6544 6.68853 12.1864 6.54053 12.7624 6.54053C13.2504 6.54053 13.6824 6.63653 14.0584 6.82853C14.4424 7.01253 14.7384 7.27253 14.9464 7.60853C15.1624 7.94453 15.2704 8.32853 15.2704 8.76053V13.1525H14.1784V12.3125C13.9464 12.6165 13.6384 12.8565 13.2544 13.0325C12.8784 13.2085 12.4584 13.2965 11.9944 13.2965ZM11.0104 11.4245C11.0104 11.6885 11.1144 11.9085 11.3224 12.0845C11.5384 12.2605 11.8064 12.3485 12.1264 12.3485C12.5184 12.3485 12.8664 12.2645 13.1704 12.0965C13.4824 11.9205 13.7224 11.6845 13.8904 11.3885C14.0664 11.0925 14.1544 10.7645 14.1544 10.4045V9.99653L12.1984 10.3205C11.4064 10.4565 11.0104 10.8245 11.0104 11.4245ZM17.0007 6.68453H18.0927V7.45253C18.4287 6.89253 19.0007 6.61253 19.8087 6.61253H20.2047V7.66853H19.6407C19.1767 7.66853 18.8047 7.81253 18.5247 8.10053C18.2527 8.38853 18.1167 8.78853 18.1167 9.30053V13.1525H17.0007V6.68453ZM24.544 13.2965C24.072 13.2965 23.64 13.2045 23.248 13.0205C22.856 12.8285 22.536 12.5605 22.288 12.2165V13.1525H21.196V4.06853H22.312V7.56053C22.568 7.24053 22.888 6.99253 23.272 6.81653C23.664 6.63253 24.092 6.54053 24.556 6.54053C25.156 6.54053 25.7 6.68853 26.188 6.98453C26.676 7.28053 27.06 7.68853 27.34 8.20853C27.62 8.72053 27.76 9.29253 27.76 9.92453C27.76 10.5565 27.62 11.1285 27.34 11.6405C27.06 12.1525 26.676 12.5565 26.188 12.8525C25.7 13.1485 25.152 13.2965 24.544 13.2965ZM22.312 9.92453C22.312 10.3565 22.404 10.7485 22.588 11.1005C22.78 11.4445 23.04 11.7165 23.368 11.9165C23.696 12.1165 24.06 12.2165 24.46 12.2165C24.86 12.2165 25.22 12.1165 25.54 11.9165C25.868 11.7165 26.12 11.4445 26.296 11.1005C26.48 10.7485 26.572 10.3565 26.572 9.92453C26.572 9.49253 26.48 9.10053 26.296 8.74853C26.112 8.39653 25.86 8.12053 25.54 7.92053C25.22 7.72053 24.86 7.62053 24.46 7.62053C24.06 7.62053 23.696 7.72053 23.368 7.92053C23.04 8.12053 22.78 8.39653 22.588 8.74853C22.404 9.10053 22.312 9.49253 22.312 9.92453ZM32.2954 13.2965C31.6794 13.2965 31.1154 13.1525 30.6034 12.8645C30.0994 12.5685 29.6994 12.1645 29.4034 11.6525C29.1074 11.1325 28.9594 10.5525 28.9594 9.91253C28.9594 9.28053 29.1034 8.70853 29.3914 8.19653C29.6874 7.67653 30.0874 7.27253 30.5914 6.98453C31.1034 6.68853 31.6714 6.54053 32.2954 6.54053C32.9114 6.54053 33.4714 6.68853 33.9754 6.98453C34.4874 7.27253 34.8874 7.67253 35.1754 8.18453C35.4714 8.69653 35.6194 9.27253 35.6194 9.91253C35.6194 10.5605 35.4714 11.1405 35.1754 11.6525C34.8794 12.1645 34.4754 12.5685 33.9634 12.8645C33.4594 13.1525 32.9034 13.2965 32.2954 13.2965ZM30.1354 9.91253C30.1354 10.3445 30.2274 10.7365 30.4114 11.0885C30.6034 11.4405 30.8634 11.7165 31.1914 11.9165C31.5274 12.1165 31.8954 12.2165 32.2954 12.2165C32.6874 12.2165 33.0474 12.1165 33.3754 11.9165C33.7034 11.7165 33.9594 11.4405 34.1434 11.0885C34.3354 10.7365 34.4314 10.3445 34.4314 9.91253C34.4314 9.48053 34.3354 9.09253 34.1434 8.74853C33.9594 8.39653 33.7034 8.12053 33.3754 7.92053C33.0474 7.72053 32.6874 7.62053 32.2954 7.62053C31.8954 7.62053 31.5274 7.72053 31.1914 7.92053C30.8634 8.12053 30.6034 8.39653 30.4114 8.74853C30.2274 9.09253 30.1354 9.48053 30.1354 9.91253ZM37.0749 6.68453H38.1669V7.47653C38.3589 7.17253 38.6149 6.94053 38.9349 6.78053C39.2549 6.62053 39.6149 6.54053 40.0149 6.54053C40.4709 6.54053 40.8829 6.64853 41.2509 6.86453C41.6189 7.07253 41.9069 7.36053 42.1149 7.72853C42.3309 8.09653 42.4389 8.50853 42.4389 8.96453V13.1525H41.3109V9.32453C41.3109 8.79653 41.1669 8.38053 40.8789 8.07653C40.5989 7.77253 40.2269 7.62053 39.7629 7.62053C39.2989 7.62053 38.9189 7.77653 38.6229 8.08853C38.3349 8.39253 38.1909 8.80453 38.1909 9.32453V13.1525H37.0749V6.68453Z" fill="#4CA852"/>
<path d="M44.1679 4.21253H47.0959C47.9919 4.21253 48.7759 4.39653 49.4479 4.76453C50.1279 5.13253 50.6519 5.65653 51.0199 6.33653C51.3879 7.00853 51.5719 7.78853 51.5719 8.67653C51.5719 9.56453 51.3879 10.3485 51.0199 11.0285C50.6519 11.7005 50.1279 12.2245 49.4479 12.6005C48.7759 12.9685 47.9919 13.1525 47.0959 13.1525H44.1679V4.21253ZM47.1079 12.0725C47.7639 12.0725 48.3359 11.9365 48.8239 11.6645C49.3119 11.3845 49.6879 10.9885 49.9519 10.4765C50.2159 9.96453 50.3479 9.36453 50.3479 8.67653C50.3479 7.98853 50.2159 7.39253 49.9519 6.88853C49.6879 6.37653 49.3079 5.98453 48.8119 5.71253C48.3239 5.43253 47.7559 5.29253 47.1079 5.29253H45.3439V12.0725H47.1079ZM54.7327 13.2965C54.0927 13.2965 53.5727 13.1285 53.1727 12.7925C52.7727 12.4485 52.5727 12.0045 52.5727 11.4605C52.5727 10.9325 52.7447 10.4925 53.0887 10.1405C53.4407 9.78053 53.9727 9.54053 54.6847 9.42053L56.8927 9.06053V8.76053C56.8927 8.40853 56.7607 8.12453 56.4967 7.90853C56.2327 7.68453 55.8927 7.57253 55.4767 7.57253C55.1087 7.57253 54.7807 7.66853 54.4927 7.86053C54.2127 8.04453 54.0047 8.29253 53.8687 8.60453L52.8967 8.10053C53.0807 7.65253 53.4167 7.28053 53.9047 6.98453C54.3927 6.68853 54.9247 6.54053 55.5007 6.54053C55.9887 6.54053 56.4207 6.63653 56.7967 6.82853C57.1807 7.01253 57.4767 7.27253 57.6847 7.60853C57.9007 7.94453 58.0087 8.32853 58.0087 8.76053V13.1525H56.9167V12.3125C56.6847 12.6165 56.3767 12.8565 55.9927 13.0325C55.6167 13.2085 55.1967 13.2965 54.7327 13.2965ZM53.7487 11.4245C53.7487 11.6885 53.8527 11.9085 54.0607 12.0845C54.2767 12.2605 54.5447 12.3485 54.8647 12.3485C55.2567 12.3485 55.6047 12.2645 55.9087 12.0965C56.2207 11.9205 56.4607 11.6845 56.6287 11.3885C56.8047 11.0925 56.8927 10.7645 56.8927 10.4045V9.99653L54.9367 10.3205C54.1447 10.4565 53.7487 10.8245 53.7487 11.4245ZM62.679 13.2965C62.079 13.2965 61.535 13.1485 61.047 12.8525C60.559 12.5565 60.175 12.1525 59.895 11.6405C59.615 11.1285 59.475 10.5565 59.475 9.92453C59.475 9.29253 59.615 8.72053 59.895 8.20853C60.175 7.68853 60.559 7.28053 61.047 6.98453C61.535 6.68853 62.079 6.54053 62.679 6.54053C63.151 6.54053 63.575 6.62853 63.951 6.80453C64.335 6.98053 64.655 7.22853 64.911 7.54853V4.06853H66.039V13.1525H64.947V12.2045C64.707 12.5485 64.387 12.8165 63.987 13.0085C63.595 13.2005 63.159 13.2965 62.679 13.2965ZM60.651 9.92453C60.651 10.3565 60.743 10.7485 60.927 11.1005C61.111 11.4445 61.363 11.7165 61.683 11.9165C62.011 12.1165 62.375 12.2165 62.775 12.2165C63.175 12.2165 63.535 12.1165 63.855 11.9165C64.183 11.7165 64.439 11.4445 64.623 11.1005C64.815 10.7485 64.911 10.3565 64.911 9.92453C64.911 9.49253 64.815 9.10053 64.623 8.74853C64.439 8.39653 64.183 8.12053 63.855 7.92053C63.535 7.72053 63.175 7.62053 62.775 7.62053C62.375 7.62053 62.011 7.72053 61.683 7.92053C61.363 8.12053 61.111 8.39653 60.927 8.74853C60.743 9.10053 60.651 9.49253 60.651 9.92453Z" fill="black"/>
<path d="M13.6033 1.87779C12.5078 2.69313 11.6443 4.55185 12.0243 4.71127C12.4044 4.8707 14.2639 4.08793 15.1309 3.15399C15.8234 2.408 16.4335 1.10528 16.158 0.906108C15.8824 0.706937 14.4235 1.26727 13.6033 1.87779Z" fill="#4CA852"/>
</svg>
