<svg width="35" height="35" viewBox="0 0 35 35" fill="none" xmlns="http://www.w3.org/2000/svg">
<path d="M5.83334 11.2917C5.83334 9.40607 5.83334 8.46326 6.41912 7.87747C7.00491 7.29169 7.94772 7.29169 9.83334 7.29169H9.97241C10.7816 7.29169 11.1862 7.29169 11.4659 7.52867C11.7457 7.76565 11.8122 8.16473 11.9452 8.96289L12.1173 9.99548C12.2503 10.7936 12.3168 11.1927 12.5966 11.4297C12.8763 11.6667 13.2809 11.6667 14.0901 11.6667H20.9099C21.7191 11.6667 22.1237 11.6667 22.4034 11.4297C22.6832 11.1927 22.7497 10.7936 22.8827 9.99549L23.0548 8.96289C23.1878 8.16473 23.2543 7.76565 23.5341 7.52867C23.8138 7.29169 24.2184 7.29169 25.0276 7.29169H25.1667C27.0523 7.29169 27.9951 7.29169 28.5809 7.87747C29.1667 8.46326 29.1667 9.40607 29.1667 11.2917V26.625C29.1667 28.5106 29.1667 29.4534 28.5809 30.0392C27.9951 30.625 27.0523 30.625 25.1667 30.625H9.83334C7.94772 30.625 7.00491 30.625 6.41912 30.0392C5.83334 29.4534 5.83334 28.5106 5.83334 26.625V11.2917Z" fill="#7E869E" fill-opacity="0.25"/>
<rect x="5.83334" y="7.29169" width="23.3333" height="23.3333" rx="2" stroke="white" stroke-width="1.2"/>
<path d="M23.3333 2.91669L23.3333 9.66668C23.3333 10.6095 23.3333 11.0809 23.0404 11.3738C22.7475 11.6667 22.2761 11.6667 21.3333 11.6667L13.6667 11.6667C12.7239 11.6667 12.2525 11.6667 11.9596 11.3738C11.6667 11.0809 11.6667 10.6095 11.6667 9.66668L11.6667 2.91669" stroke="white" stroke-width="1.2" stroke-linecap="round"/>
<path d="M12.8333 20.4167L15.0429 22.6262C15.4334 23.0168 16.0666 23.0168 16.4571 22.6262L21.5833 17.5" stroke="white" stroke-linecap="round"/>
</svg>
