<svg width="142" height="17" viewBox="0 0 142 17" fill="none" xmlns="http://www.w3.org/2000/svg">
<path d="M138.639 8.2467L139.134 7.75173L139.628 8.2467L139.134 8.74168L138.639 8.2467ZM128.639 8.9467C128.252 8.9467 127.939 8.6333 127.939 8.2467C127.939 7.8601 128.252 7.5467 128.639 7.5467V8.9467ZM135.134 3.75173L139.134 7.75173L138.144 8.74168L134.144 4.74168L135.134 3.75173ZM139.134 8.74168L135.134 12.7417L134.144 11.7517L138.144 7.75173L139.134 8.74168ZM138.639 8.9467H128.639V7.5467H138.639V8.9467Z" fill="#4CA852"/>
<path d="M1.77884 4.0517H6.97084V5.0417H2.85684V7.6927H6.58585V8.6827H2.85684V12.2467H1.77884V4.0517ZM8.07093 6.3177H9.09393V12.2467H8.07093V6.3177ZM7.94993 4.7337C7.94993 4.54304 8.0086 4.38904 8.12593 4.2717C8.24326 4.15437 8.39726 4.0957 8.58793 4.0957C8.7786 4.0957 8.9326 4.15437 9.04993 4.2717C9.16726 4.38904 9.22593 4.54304 9.22593 4.7337C9.22593 4.92437 9.16726 5.07837 9.04993 5.1957C8.9326 5.31304 8.7786 5.3717 8.58793 5.3717C8.39726 5.3717 8.24326 5.31304 8.12593 5.1957C8.0086 5.07837 7.94993 4.92437 7.94993 4.7337ZM10.6813 6.3177H11.6823V7.0437C11.8583 6.76504 12.0929 6.55237 12.3863 6.4057C12.6796 6.25904 13.0096 6.1857 13.3763 6.1857C13.7943 6.1857 14.1719 6.2847 14.5093 6.4827C14.8466 6.67337 15.1106 6.93737 15.3013 7.2747C15.4993 7.61204 15.5983 7.9897 15.5983 8.4077V12.2467H14.5643V8.7377C14.5643 8.2537 14.4323 7.87237 14.1683 7.5937C13.9116 7.31504 13.5706 7.1757 13.1453 7.1757C12.7199 7.1757 12.3716 7.3187 12.1003 7.6047C11.8363 7.88337 11.7043 8.26104 11.7043 8.7377V12.2467H10.6813V6.3177ZM19.7571 12.3787C19.2071 12.3787 18.7085 12.243 18.2611 11.9717C17.8138 11.7004 17.4618 11.33 17.2051 10.8607C16.9485 10.3914 16.8201 9.86704 16.8201 9.2877C16.8201 8.70837 16.9485 8.18404 17.2051 7.7147C17.4618 7.23804 17.8138 6.86404 18.2611 6.5927C18.7085 6.32137 19.2071 6.1857 19.7571 6.1857C20.1898 6.1857 20.5785 6.26637 20.9231 6.4277C21.2751 6.58904 21.5685 6.81637 21.8031 7.1097V3.9197H22.8371V12.2467H21.8361V11.3777C21.6161 11.693 21.3228 11.9387 20.9561 12.1147C20.5968 12.2907 20.1971 12.3787 19.7571 12.3787ZM17.8981 9.2877C17.8981 9.6837 17.9825 10.043 18.1511 10.3657C18.3198 10.681 18.5508 10.9304 18.8441 11.1137C19.1448 11.297 19.4785 11.3887 19.8451 11.3887C20.2118 11.3887 20.5418 11.297 20.8351 11.1137C21.1358 10.9304 21.3705 10.681 21.5391 10.3657C21.7151 10.043 21.8031 9.6837 21.8031 9.2877C21.8031 8.8917 21.7151 8.53237 21.5391 8.2097C21.3705 7.88704 21.1358 7.63404 20.8351 7.4507C20.5418 7.26737 20.2118 7.1757 19.8451 7.1757C19.4785 7.1757 19.1448 7.26737 18.8441 7.4507C18.5508 7.63404 18.3198 7.88704 18.1511 8.2097C17.9825 8.53237 17.8981 8.8917 17.8981 9.2877ZM26.3219 6.3177H27.3229V7.0547C27.4916 6.77604 27.7189 6.56337 28.0049 6.4167C28.2982 6.2627 28.6209 6.1857 28.9729 6.1857C29.3762 6.1857 29.7429 6.2847 30.0729 6.4827C30.4102 6.67337 30.6669 6.9337 30.8429 7.2637C31.0336 6.91904 31.2902 6.65504 31.6129 6.4717C31.9429 6.28104 32.3059 6.1857 32.7019 6.1857C33.1052 6.1857 33.4756 6.2847 33.8129 6.4827C34.1502 6.67337 34.4179 6.93737 34.6159 7.2747C34.8139 7.61204 34.9129 7.9897 34.9129 8.4077V12.2467H33.8789V8.7377C33.8789 8.2537 33.7506 7.87237 33.4939 7.5937C33.2446 7.31504 32.9182 7.1757 32.5149 7.1757C32.1042 7.1757 31.7706 7.3187 31.5139 7.6047C31.2572 7.88337 31.1289 8.26104 31.1289 8.7377V12.2467H30.0949V8.7377C30.0949 8.2537 29.9702 7.87237 29.7209 7.5937C29.4716 7.31504 29.1416 7.1757 28.7309 7.1757C28.3276 7.1757 27.9939 7.3187 27.7299 7.6047C27.4732 7.88337 27.3449 8.26104 27.3449 8.7377V12.2467H26.3219V6.3177ZM39.1819 12.3787C38.6172 12.3787 38.1002 12.2467 37.6309 11.9827C37.1689 11.7114 36.8022 11.341 36.5309 10.8717C36.2595 10.395 36.1239 9.86337 36.1239 9.2767C36.1239 8.69737 36.2559 8.17304 36.5199 7.7037C36.7912 7.22704 37.1579 6.8567 37.6199 6.5927C38.0892 6.32137 38.6099 6.1857 39.1819 6.1857C39.7465 6.1857 40.2599 6.32137 40.7219 6.5927C41.1912 6.8567 41.5579 7.22337 41.8219 7.6927C42.0932 8.16204 42.2289 8.69004 42.2289 9.2767C42.2289 9.8707 42.0932 10.4024 41.8219 10.8717C41.5505 11.341 41.1802 11.7114 40.7109 11.9827C40.2489 12.2467 39.7392 12.3787 39.1819 12.3787ZM37.2019 9.2767C37.2019 9.6727 37.2862 10.032 37.4549 10.3547C37.6309 10.6774 37.8692 10.9304 38.1699 11.1137C38.4779 11.297 38.8152 11.3887 39.1819 11.3887C39.5412 11.3887 39.8712 11.297 40.1719 11.1137C40.4725 10.9304 40.7072 10.6774 40.8759 10.3547C41.0519 10.032 41.1399 9.6727 41.1399 9.2767C41.1399 8.8807 41.0519 8.52504 40.8759 8.2097C40.7072 7.88704 40.4725 7.63404 40.1719 7.4507C39.8712 7.26737 39.5412 7.1757 39.1819 7.1757C38.8152 7.1757 38.4779 7.26737 38.1699 7.4507C37.8692 7.63404 37.6309 7.88704 37.4549 8.2097C37.2862 8.52504 37.2019 8.8807 37.2019 9.2767ZM43.5631 6.3177H44.5641V7.0217C44.8721 6.50837 45.3965 6.2517 46.1371 6.2517H46.5001V7.2197H45.9831C45.5578 7.2197 45.2168 7.3517 44.9601 7.6157C44.7108 7.8797 44.5861 8.24637 44.5861 8.7157V12.2467H43.5631V6.3177ZM50.1368 12.3787C49.5795 12.3787 49.0735 12.243 48.6188 11.9717C48.1642 11.7004 47.8085 11.33 47.5518 10.8607C47.2952 10.384 47.1668 9.85237 47.1668 9.2657C47.1668 8.67904 47.2915 8.15104 47.5408 7.6817C47.7975 7.21237 48.1422 6.8457 48.5748 6.5817C49.0148 6.3177 49.5062 6.1857 50.0488 6.1857C50.6135 6.1857 51.1048 6.3177 51.5228 6.5817C51.9482 6.8457 52.2708 7.1977 52.4908 7.6377C52.7182 8.07037 52.8318 8.53604 52.8318 9.0347C52.8318 9.20337 52.8135 9.3867 52.7768 9.5847H48.2448C48.2595 9.9587 48.3548 10.285 48.5308 10.5637C48.7068 10.8424 48.9342 11.0587 49.2128 11.2127C49.4988 11.3667 49.8105 11.4437 50.1478 11.4437C50.8665 11.4437 51.4202 11.1174 51.8088 10.4647L52.6668 10.9047C52.4762 11.33 52.1535 11.682 51.6988 11.9607C51.2442 12.2394 50.7235 12.3787 50.1368 12.3787ZM51.7208 8.7047C51.7062 8.2427 51.5375 7.86137 51.2148 7.5607C50.8995 7.2527 50.5108 7.0987 50.0488 7.0987C49.5942 7.0987 49.2018 7.24537 48.8718 7.5387C48.5418 7.8247 48.3402 8.21337 48.2668 8.7047H51.7208ZM57.805 12.3787C57.2184 12.3787 56.7417 12.2247 56.375 11.9167C56.0084 11.6014 55.825 11.1944 55.825 10.6957C55.825 10.2117 55.9827 9.80837 56.298 9.4857C56.6207 9.1557 57.1084 8.9357 57.761 8.8257L59.785 8.4957V8.2207C59.785 7.89804 59.664 7.6377 59.422 7.4397C59.18 7.23437 58.8684 7.1317 58.487 7.1317C58.1497 7.1317 57.849 7.2197 57.585 7.3957C57.3284 7.56437 57.1377 7.7917 57.013 8.0777L56.122 7.6157C56.2907 7.20504 56.5987 6.86404 57.046 6.5927C57.4934 6.32137 57.981 6.1857 58.509 6.1857C58.9564 6.1857 59.3524 6.2737 59.697 6.4497C60.049 6.61837 60.3204 6.8567 60.511 7.1647C60.709 7.4727 60.808 7.8247 60.808 8.2207V12.2467H59.807V11.4767C59.5944 11.7554 59.312 11.9754 58.96 12.1367C58.6154 12.298 58.2304 12.3787 57.805 12.3787ZM56.903 10.6627C56.903 10.9047 56.9984 11.1064 57.189 11.2677C57.387 11.429 57.6327 11.5097 57.926 11.5097C58.2854 11.5097 58.6044 11.4327 58.883 11.2787C59.169 11.1174 59.389 10.901 59.543 10.6297C59.7044 10.3584 59.785 10.0577 59.785 9.7277V9.3537L57.992 9.6507C57.266 9.77537 56.903 10.1127 56.903 10.6627ZM65.4632 12.3787C65.0305 12.3787 64.6345 12.2944 64.2752 12.1257C63.9158 11.9497 63.6225 11.704 63.3952 11.3887V12.2467H62.3942V3.9197H63.4172V7.1207C63.6518 6.82737 63.9452 6.60004 64.2972 6.4387C64.6565 6.27004 65.0488 6.1857 65.4742 6.1857C66.0242 6.1857 66.5228 6.32137 66.9702 6.5927C67.4175 6.86404 67.7695 7.23804 68.0262 7.7147C68.2828 8.18404 68.4112 8.70837 68.4112 9.2877C68.4112 9.86704 68.2828 10.3914 68.0262 10.8607C67.7695 11.33 67.4175 11.7004 66.9702 11.9717C66.5228 12.243 66.0205 12.3787 65.4632 12.3787ZM63.4172 9.2877C63.4172 9.6837 63.5015 10.043 63.6702 10.3657C63.8462 10.681 64.0845 10.9304 64.3852 11.1137C64.6858 11.297 65.0195 11.3887 65.3862 11.3887C65.7528 11.3887 66.0828 11.297 66.3762 11.1137C66.6768 10.9304 66.9078 10.681 67.0692 10.3657C67.2378 10.043 67.3222 9.6837 67.3222 9.2877C67.3222 8.8917 67.2378 8.53237 67.0692 8.2097C66.9005 7.88704 66.6695 7.63404 66.3762 7.4507C66.0828 7.26737 65.7528 7.1757 65.3862 7.1757C65.0195 7.1757 64.6858 7.26737 64.3852 7.4507C64.0845 7.63404 63.8462 7.88704 63.6702 8.2097C63.5015 8.53237 63.4172 8.8917 63.4172 9.2877ZM72.5686 12.3787C72.0039 12.3787 71.4869 12.2467 71.0176 11.9827C70.5556 11.7114 70.1889 11.341 69.9176 10.8717C69.6462 10.395 69.5106 9.86337 69.5106 9.2767C69.5106 8.69737 69.6426 8.17304 69.9066 7.7037C70.1779 7.22704 70.5446 6.8567 71.0066 6.5927C71.4759 6.32137 71.9966 6.1857 72.5686 6.1857C73.1332 6.1857 73.6466 6.32137 74.1086 6.5927C74.5779 6.8567 74.9446 7.22337 75.2086 7.6927C75.4799 8.16204 75.6156 8.69004 75.6156 9.2767C75.6156 9.8707 75.4799 10.4024 75.2086 10.8717C74.9372 11.341 74.5669 11.7114 74.0976 11.9827C73.6356 12.2467 73.1259 12.3787 72.5686 12.3787ZM70.5886 9.2767C70.5886 9.6727 70.6729 10.032 70.8416 10.3547C71.0176 10.6774 71.2559 10.9304 71.5566 11.1137C71.8646 11.297 72.2019 11.3887 72.5686 11.3887C72.9279 11.3887 73.2579 11.297 73.5586 11.1137C73.8592 10.9304 74.0939 10.6774 74.2626 10.3547C74.4386 10.032 74.5266 9.6727 74.5266 9.2767C74.5266 8.8807 74.4386 8.52504 74.2626 8.2097C74.0939 7.88704 73.8592 7.63404 73.5586 7.4507C73.2579 7.26737 72.9279 7.1757 72.5686 7.1757C72.2019 7.1757 71.8646 7.26737 71.5566 7.4507C71.2559 7.63404 71.0176 7.88704 70.8416 8.2097C70.6729 8.52504 70.5886 8.8807 70.5886 9.2767ZM79.0508 12.3787C78.6255 12.3787 78.2442 12.2797 77.9068 12.0817C77.5695 11.8837 77.3055 11.6087 77.1148 11.2567C76.9242 10.8974 76.8288 10.4867 76.8288 10.0247V6.3177H77.8518V9.9147C77.8518 10.3547 77.9838 10.7104 78.2478 10.9817C78.5118 11.253 78.8565 11.3887 79.2818 11.3887C79.7072 11.3887 80.0518 11.2494 80.3158 10.9707C80.5798 10.6847 80.7118 10.3034 80.7118 9.8267V6.3177H81.7458V12.2467H80.7448V11.5207C80.5688 11.7994 80.3342 12.012 80.0408 12.1587C79.7475 12.3054 79.4175 12.3787 79.0508 12.3787ZM85.7397 12.3127C85.1604 12.3127 84.713 12.1514 84.3977 11.8287C84.0897 11.4987 83.9357 11.0294 83.9357 10.4207V7.2967H82.8577V6.3177H83.0777C83.3417 6.3177 83.5507 6.2407 83.7047 6.0867C83.8587 5.92537 83.9357 5.70904 83.9357 5.4377V4.9537H84.9587V6.3177H86.2897V7.2967H84.9587V10.3877C84.9587 11.0477 85.2887 11.3777 85.9487 11.3777C86.088 11.3777 86.2237 11.3667 86.3557 11.3447V12.2577C86.2017 12.2944 85.9964 12.3127 85.7397 12.3127ZM92.0024 12.3127C91.4231 12.3127 90.9757 12.1514 90.6604 11.8287C90.3524 11.4987 90.1984 11.0294 90.1984 10.4207V7.2967H89.1204V6.3177H89.3404C89.6044 6.3177 89.8134 6.2407 89.9674 6.0867C90.1214 5.92537 90.1984 5.70904 90.1984 5.4377V4.9537H91.2214V6.3177H92.5524V7.2967H91.2214V10.3877C91.2214 11.0477 91.5514 11.3777 92.2114 11.3777C92.3507 11.3777 92.4864 11.3667 92.6184 11.3447V12.2577C92.4644 12.2944 92.2591 12.3127 92.0024 12.3127ZM93.9547 3.9197H94.9777V7.0107C95.1537 6.7467 95.3847 6.54504 95.6707 6.4057C95.9641 6.25904 96.2904 6.1857 96.6497 6.1857C97.0677 6.1857 97.4454 6.2847 97.7827 6.4827C98.1201 6.67337 98.3841 6.93737 98.5747 7.2747C98.7727 7.61204 98.8717 7.9897 98.8717 8.4077V12.2467H97.8377V8.7377C97.8377 8.2537 97.7057 7.87237 97.4417 7.5937C97.1777 7.31504 96.8367 7.1757 96.4187 7.1757C96.0007 7.1757 95.6561 7.3187 95.3847 7.6047C95.1134 7.88337 94.9777 8.26104 94.9777 8.7377V12.2467H93.9547V3.9197ZM103.064 12.3787C102.506 12.3787 102 12.243 101.546 11.9717C101.091 11.7004 100.735 11.33 100.479 10.8607C100.222 10.384 100.094 9.85237 100.094 9.2657C100.094 8.67904 100.218 8.15104 100.468 7.6817C100.724 7.21237 101.069 6.8457 101.502 6.5817C101.942 6.3177 102.433 6.1857 102.976 6.1857C103.54 6.1857 104.032 6.3177 104.45 6.5817C104.875 6.8457 105.198 7.1977 105.418 7.6377C105.645 8.07037 105.759 8.53604 105.759 9.0347C105.759 9.20337 105.74 9.3867 105.704 9.5847H101.172C101.186 9.9587 101.282 10.285 101.458 10.5637C101.634 10.8424 101.861 11.0587 102.14 11.2127C102.426 11.3667 102.737 11.4437 103.075 11.4437C103.793 11.4437 104.347 11.1174 104.736 10.4647L105.594 10.9047C105.403 11.33 105.08 11.682 104.626 11.9607C104.171 12.2394 103.65 12.3787 103.064 12.3787ZM104.648 8.7047C104.633 8.2427 104.464 7.86137 104.142 7.5607C103.826 7.2527 103.438 7.0987 102.976 7.0987C102.521 7.0987 102.129 7.24537 101.799 7.5387C101.469 7.8247 101.267 8.21337 101.194 8.7047H104.648ZM107.092 6.3177H108.093V7.0547C108.262 6.77604 108.489 6.56337 108.775 6.4167C109.069 6.2627 109.391 6.1857 109.743 6.1857C110.147 6.1857 110.513 6.2847 110.843 6.4827C111.181 6.67337 111.437 6.9337 111.613 7.2637C111.804 6.91904 112.061 6.65504 112.383 6.4717C112.713 6.28104 113.076 6.1857 113.472 6.1857C113.876 6.1857 114.246 6.2847 114.583 6.4827C114.921 6.67337 115.188 6.93737 115.386 7.2747C115.584 7.61204 115.683 7.9897 115.683 8.4077V12.2467H114.649V8.7377C114.649 8.2537 114.521 7.87237 114.264 7.5937C114.015 7.31504 113.689 7.1757 113.285 7.1757C112.875 7.1757 112.541 7.3187 112.284 7.6047C112.028 7.88337 111.899 8.26104 111.899 8.7377V12.2467H110.865V8.7377C110.865 8.2537 110.741 7.87237 110.491 7.5937C110.242 7.31504 109.912 7.1757 109.501 7.1757C109.098 7.1757 108.764 7.3187 108.5 7.6047C108.244 7.88337 108.115 8.26104 108.115 8.7377V12.2467H107.092V6.3177Z" fill="#4CA852"/>
</svg>
