<svg width="141" height="17" viewBox="0 0 141 17" fill="none" xmlns="http://www.w3.org/2000/svg">
<path d="M138.27 8.96057L138.765 8.4656L139.26 8.96057L138.765 9.45555L138.27 8.96057ZM128.27 9.66057C127.884 9.66057 127.57 9.34717 127.57 8.96057C127.57 8.57397 127.884 8.26057 128.27 8.26057V9.66057ZM134.765 4.4656L138.765 8.4656L137.775 9.45555L133.775 5.45555L134.765 4.4656ZM138.765 9.45555L134.765 13.4555L133.775 12.4656L137.775 8.4656L138.765 9.45555ZM138.27 9.66057H128.27V8.26057H138.27V9.66057Z" fill="#4CA852"/>
<path d="M1.3764 12.9606V4.96057H6.33734V5.99963H2.58344V8.43713H5.98187V9.47229H2.58344V12.9606H1.3764ZM7.72797 12.9606V6.96057H8.89594V12.9606H7.72797ZM8.31781 6.03479C8.11469 6.03479 7.94021 5.96708 7.79437 5.83166C7.65114 5.69364 7.57953 5.52958 7.57953 5.33948C7.57953 5.14677 7.65114 4.98271 7.79437 4.84729C7.94021 4.70927 8.11469 4.64026 8.31781 4.64026C8.52094 4.64026 8.69411 4.70927 8.83734 4.84729C8.98317 4.98271 9.05609 5.14677 9.05609 5.33948C9.05609 5.52958 8.98317 5.69364 8.83734 5.83166C8.69411 5.96708 8.52094 6.03479 8.31781 6.03479ZM11.6352 9.39807V12.9606H10.4672V6.96057H11.5883V7.93713H11.6625C11.8006 7.61943 12.0167 7.36422 12.311 7.17151C12.6078 6.9788 12.9815 6.88245 13.4321 6.88245C13.8409 6.88245 14.199 6.96838 14.5063 7.14026C14.8136 7.30953 15.0519 7.56213 15.2211 7.89807C15.3904 8.23401 15.475 8.64937 15.475 9.14416V12.9606H14.3071V9.28479C14.3071 8.84989 14.1938 8.51005 13.9672 8.26526C13.7407 8.01786 13.4295 7.89416 13.0336 7.89416C12.7628 7.89416 12.5219 7.95276 12.311 8.06995C12.1026 8.18713 11.9373 8.35901 11.8149 8.58557C11.6951 8.80953 11.6352 9.08036 11.6352 9.39807ZM19.2875 13.0778C18.8032 13.0778 18.3709 12.9541 17.9907 12.7067C17.6131 12.4567 17.3162 12.1012 17.1 11.6403C16.8865 11.1767 16.7797 10.6207 16.7797 9.97229C16.7797 9.32385 16.8878 8.76916 17.1039 8.30823C17.3227 7.84729 17.6222 7.49443 18.0024 7.24963C18.3826 7.00484 18.8136 6.88245 19.2953 6.88245C19.6677 6.88245 19.9672 6.94495 20.1938 7.06995C20.423 7.19234 20.6 7.33557 20.725 7.49963C20.8526 7.6637 20.9516 7.80823 21.0219 7.93323H21.0922V4.96057H22.2602V12.9606H21.1196V12.027H21.0219C20.9516 12.1546 20.85 12.3004 20.7172 12.4645C20.587 12.6285 20.4073 12.7718 20.1782 12.8942C19.949 13.0166 19.6521 13.0778 19.2875 13.0778ZM19.5453 12.0817C19.8813 12.0817 20.1651 11.9931 20.3969 11.816C20.6313 11.6364 20.8084 11.3877 20.9282 11.0699C21.0506 10.7522 21.1118 10.3824 21.1118 9.96057C21.1118 9.5439 21.0519 9.17932 20.9321 8.86682C20.8123 8.55432 20.6365 8.31083 20.4047 8.13635C20.173 7.96187 19.8865 7.87463 19.5453 7.87463C19.1938 7.87463 18.9008 7.96578 18.6664 8.14807C18.4321 8.33036 18.255 8.57906 18.1352 8.89416C18.018 9.20927 17.9594 9.56474 17.9594 9.96057C17.9594 10.3616 18.0193 10.7223 18.1391 11.0426C18.2589 11.3629 18.436 11.6168 18.6703 11.8043C18.9073 11.9892 19.199 12.0817 19.5453 12.0817ZM26.8383 12.9606V6.96057H27.9594V7.93713H28.0336C28.1586 7.6064 28.3631 7.34859 28.6469 7.1637C28.9308 6.9762 29.2706 6.88245 29.6664 6.88245C30.0675 6.88245 30.4034 6.9762 30.6743 7.1637C30.9477 7.3512 31.1495 7.60901 31.2797 7.93713H31.3422C31.4855 7.61682 31.7133 7.36161 32.0258 7.17151C32.3383 6.9788 32.7107 6.88245 33.143 6.88245C33.6873 6.88245 34.1313 7.05302 34.475 7.39416C34.8214 7.73531 34.9946 8.24963 34.9946 8.93713V12.9606H33.8266V9.04651C33.8266 8.64026 33.7159 8.34599 33.4946 8.1637C33.2732 7.9814 33.0089 7.89026 32.7016 7.89026C32.3214 7.89026 32.0258 8.00745 31.8149 8.24182C31.6039 8.47359 31.4985 8.77177 31.4985 9.13635V12.9606H30.3344V8.97229C30.3344 8.64677 30.2328 8.38505 30.0297 8.18713C29.8266 7.98922 29.5623 7.89026 29.2368 7.89026C29.0154 7.89026 28.811 7.94885 28.6235 8.06604C28.4386 8.18062 28.2888 8.34078 28.1743 8.54651C28.0623 8.75224 28.0063 8.99052 28.0063 9.26135V12.9606H26.8383ZM39.0873 13.0817C38.5248 13.0817 38.034 12.9528 37.6147 12.6949C37.1954 12.4371 36.8699 12.0765 36.6381 11.6129C36.4064 11.1494 36.2905 10.6077 36.2905 9.98791C36.2905 9.36552 36.4064 8.82125 36.6381 8.3551C36.8699 7.88896 37.1954 7.52698 37.6147 7.26917C38.034 7.01135 38.5248 6.88245 39.0873 6.88245C39.6498 6.88245 40.1407 7.01135 40.56 7.26917C40.9793 7.52698 41.3048 7.88896 41.5366 8.3551C41.7683 8.82125 41.8842 9.36552 41.8842 9.98791C41.8842 10.6077 41.7683 11.1494 41.5366 11.6129C41.3048 12.0765 40.9793 12.4371 40.56 12.6949C40.1407 12.9528 39.6498 13.0817 39.0873 13.0817ZM39.0912 12.1012C39.4558 12.1012 39.7579 12.0048 39.9975 11.8121C40.2371 11.6194 40.4142 11.3629 40.5287 11.0426C40.6459 10.7223 40.7045 10.3694 40.7045 9.98401C40.7045 9.6012 40.6459 9.24963 40.5287 8.92932C40.4142 8.6064 40.2371 8.34729 39.9975 8.15198C39.7579 7.95666 39.4558 7.85901 39.0912 7.85901C38.7241 7.85901 38.4194 7.95666 38.1772 8.15198C37.9376 8.34729 37.7592 8.6064 37.642 8.92932C37.5274 9.24963 37.4702 9.6012 37.4702 9.98401C37.4702 10.3694 37.5274 10.7223 37.642 11.0426C37.7592 11.3629 37.9376 11.6194 38.1772 11.8121C38.4194 12.0048 38.7241 12.1012 39.0912 12.1012ZM43.1879 12.9606V6.96057H44.3168V7.9137H44.3793C44.4887 7.59078 44.6814 7.33687 44.9575 7.15198C45.2361 6.96448 45.5512 6.87073 45.9028 6.87073C45.9757 6.87073 46.0616 6.87333 46.1606 6.87854C46.2621 6.88375 46.3416 6.89026 46.3989 6.89807V8.01526C46.352 8.00224 46.2687 7.98791 46.1489 7.97229C46.0291 7.95406 45.9093 7.94495 45.7895 7.94495C45.5134 7.94495 45.2674 8.00354 45.0512 8.12073C44.8377 8.23531 44.6684 8.39547 44.5434 8.6012C44.4184 8.80432 44.3559 9.03609 44.3559 9.29651V12.9606H43.1879ZM49.7807 13.0817C49.1896 13.0817 48.6804 12.9554 48.2534 12.7028C47.8289 12.4476 47.5008 12.0895 47.269 11.6285C47.0398 11.165 46.9252 10.622 46.9252 9.99963C46.9252 9.38505 47.0398 8.84338 47.269 8.37463C47.5008 7.90588 47.8237 7.54 48.2377 7.27698C48.6544 7.01396 49.1414 6.88245 49.6987 6.88245C50.0372 6.88245 50.3653 6.93844 50.683 7.05041C51.0008 7.16239 51.2859 7.33818 51.5385 7.57776C51.7911 7.81734 51.9903 8.12854 52.1362 8.51135C52.282 8.89156 52.3549 9.3538 52.3549 9.89807V10.3121H47.5854V9.43713H51.2104C51.2104 9.12984 51.1479 8.85771 51.0229 8.62073C50.8979 8.38114 50.7221 8.19234 50.4955 8.05432C50.2716 7.9163 50.0086 7.84729 49.7065 7.84729C49.3784 7.84729 49.0919 7.92802 48.8471 8.08948C48.6049 8.24833 48.4174 8.45666 48.2846 8.71448C48.1544 8.96969 48.0893 9.24703 48.0893 9.54651V10.2301C48.0893 10.6311 48.1596 10.9723 48.3002 11.2535C48.4435 11.5348 48.6427 11.7496 48.8979 11.8981C49.1531 12.0439 49.4513 12.1168 49.7924 12.1168C50.0138 12.1168 50.2156 12.0856 50.3979 12.0231C50.5802 11.958 50.7377 11.8616 50.8705 11.734C51.0034 11.6064 51.1049 11.4489 51.1752 11.2614L52.2807 11.4606C52.1922 11.7861 52.0333 12.0712 51.8041 12.316C51.5776 12.5582 51.2924 12.747 50.9487 12.8824C50.6075 13.0153 50.2182 13.0817 49.7807 13.0817ZM58.308 13.0934C57.9278 13.0934 57.5841 13.0231 57.2768 12.8824C56.9695 12.7392 56.726 12.5322 56.5463 12.2614C56.3692 11.9905 56.2807 11.6585 56.2807 11.2653C56.2807 10.9267 56.3458 10.6481 56.476 10.4293C56.6062 10.2106 56.782 10.0374 57.0034 9.90979C57.2247 9.78219 57.4721 9.68583 57.7455 9.62073C58.019 9.55562 58.2976 9.50614 58.5815 9.47229C58.9409 9.43062 59.2325 9.39677 59.4565 9.37073C59.6804 9.34208 59.8432 9.29651 59.9448 9.23401C60.0463 9.17151 60.0971 9.06995 60.0971 8.92932V8.90198C60.0971 8.56083 60.0008 8.29651 59.808 8.10901C59.6179 7.92151 59.3341 7.82776 58.9565 7.82776C58.5633 7.82776 58.2534 7.915 58.0268 8.08948C57.8028 8.26135 57.6479 8.45276 57.562 8.6637L56.4643 8.4137C56.5945 8.04911 56.7846 7.75484 57.0346 7.53088C57.2872 7.30432 57.5776 7.14026 57.9057 7.0387C58.2338 6.93453 58.5789 6.88245 58.9409 6.88245C59.1804 6.88245 59.4343 6.91109 59.7026 6.96838C59.9734 7.02307 60.226 7.12463 60.4604 7.27307C60.6974 7.42151 60.8914 7.63375 61.0424 7.90979C61.1935 8.18323 61.269 8.5387 61.269 8.9762V12.9606H60.1284V12.1403H60.0815C60.006 12.2913 59.8927 12.4397 59.7416 12.5856C59.5906 12.7314 59.3966 12.8525 59.1596 12.9489C58.9226 13.0452 58.6388 13.0934 58.308 13.0934ZM58.562 12.1559C58.8849 12.1559 59.1609 12.0921 59.3901 11.9645C59.6218 11.8369 59.7976 11.6702 59.9174 11.4645C60.0398 11.2561 60.101 11.0335 60.101 10.7965V10.0231C60.0593 10.0647 59.9786 10.1038 59.8588 10.1403C59.7416 10.1741 59.6075 10.2041 59.4565 10.2301C59.3054 10.2535 59.1583 10.2757 59.0151 10.2965C58.8718 10.3147 58.7521 10.3304 58.6557 10.3434C58.4291 10.372 58.2221 10.4202 58.0346 10.4879C57.8497 10.5556 57.7013 10.6533 57.5893 10.7809C57.4799 10.9059 57.4252 11.0726 57.4252 11.2809C57.4252 11.5699 57.532 11.7887 57.7455 11.9371C57.9591 12.083 58.2312 12.1559 58.562 12.1559ZM62.9184 12.9606V4.96057H64.0864V7.93323H64.1567C64.2244 7.80823 64.322 7.6637 64.4496 7.49963C64.5773 7.33557 64.7543 7.19234 64.9809 7.06995C65.2075 6.94495 65.5069 6.88245 65.8793 6.88245C66.3637 6.88245 66.796 7.00484 67.1762 7.24963C67.5564 7.49443 67.8546 7.84729 68.0707 8.30823C68.2895 8.76916 68.3989 9.32385 68.3989 9.97229C68.3989 10.6207 68.2908 11.1767 68.0746 11.6403C67.8585 12.1012 67.5616 12.4567 67.184 12.7067C66.8064 12.9541 66.3754 13.0778 65.8911 13.0778C65.5265 13.0778 65.2283 13.0166 64.9965 12.8942C64.7674 12.7718 64.5877 12.6285 64.4575 12.4645C64.3273 12.3004 64.227 12.1546 64.1567 12.027H64.059V12.9606H62.9184ZM64.0629 9.96057C64.0629 10.3824 64.1241 10.7522 64.2465 11.0699C64.3689 11.3877 64.546 11.6364 64.7778 11.816C65.0095 11.9931 65.2934 12.0817 65.6293 12.0817C65.9783 12.0817 66.27 11.9892 66.5043 11.8043C66.7387 11.6168 66.9158 11.3629 67.0356 11.0426C67.158 10.7223 67.2192 10.3616 67.2192 9.96057C67.2192 9.56474 67.1593 9.20927 67.0395 8.89416C66.9223 8.57906 66.7452 8.33036 66.5082 8.14807C66.2739 7.96578 65.9809 7.87463 65.6293 7.87463C65.2908 7.87463 65.0043 7.96187 64.77 8.13635C64.5382 8.31083 64.3624 8.55432 64.2426 8.86682C64.1228 9.17932 64.0629 9.5439 64.0629 9.96057ZM72.2377 13.0817C71.6752 13.0817 71.1843 12.9528 70.7651 12.6949C70.3458 12.4371 70.0203 12.0765 69.7885 11.6129C69.5567 11.1494 69.4409 10.6077 69.4409 9.98791C69.4409 9.36552 69.5567 8.82125 69.7885 8.3551C70.0203 7.88896 70.3458 7.52698 70.7651 7.26917C71.1843 7.01135 71.6752 6.88245 72.2377 6.88245C72.8002 6.88245 73.2911 7.01135 73.7104 7.26917C74.1297 7.52698 74.4552 7.88896 74.687 8.3551C74.9187 8.82125 75.0346 9.36552 75.0346 9.98791C75.0346 10.6077 74.9187 11.1494 74.687 11.6129C74.4552 12.0765 74.1297 12.4371 73.7104 12.6949C73.2911 12.9528 72.8002 13.0817 72.2377 13.0817ZM72.2416 12.1012C72.6062 12.1012 72.9083 12.0048 73.1479 11.8121C73.3875 11.6194 73.5646 11.3629 73.6791 11.0426C73.7963 10.7223 73.8549 10.3694 73.8549 9.98401C73.8549 9.6012 73.7963 9.24963 73.6791 8.92932C73.5646 8.6064 73.3875 8.34729 73.1479 8.15198C72.9083 7.95666 72.6062 7.85901 72.2416 7.85901C71.8745 7.85901 71.5698 7.95666 71.3276 8.15198C71.088 8.34729 70.9096 8.6064 70.7924 8.92932C70.6778 9.24963 70.6205 9.6012 70.6205 9.98401C70.6205 10.3694 70.6778 10.7223 70.7924 11.0426C70.9096 11.3629 71.088 11.6194 71.3276 11.8121C71.5698 12.0048 71.8745 12.1012 72.2416 12.1012ZM80.1391 10.4723V6.96057H81.311V12.9606H80.1625V11.9215H80.1C79.962 12.2418 79.7407 12.5087 79.436 12.7223C79.1339 12.9332 78.7576 13.0387 78.3071 13.0387C77.9217 13.0387 77.5805 12.9541 77.2836 12.7848C76.9894 12.6129 76.7576 12.359 76.5883 12.0231C76.4217 11.6871 76.3383 11.2718 76.3383 10.777V6.96057H77.5063V10.6364C77.5063 11.0452 77.6196 11.3707 77.8461 11.6129C78.0727 11.8551 78.367 11.9762 78.7289 11.9762C78.9477 11.9762 79.1651 11.9215 79.3813 11.8121C79.6 11.7028 79.781 11.5374 79.9243 11.316C80.0701 11.0947 80.1417 10.8134 80.1391 10.4723ZM85.6811 6.96057V7.89807H82.4037V6.96057H85.6811ZM83.2827 5.52307H84.4506V11.1989C84.4506 11.4254 84.4845 11.596 84.5522 11.7106C84.6199 11.8226 84.7071 11.8994 84.8139 11.941C84.9233 11.9801 85.0418 11.9996 85.1694 11.9996C85.2631 11.9996 85.3452 11.9931 85.4155 11.9801C85.4858 11.9671 85.5405 11.9567 85.5795 11.9489L85.7905 12.9137C85.7228 12.9397 85.6264 12.9658 85.5014 12.9918C85.3764 13.0205 85.2202 13.0361 85.0327 13.0387C84.7254 13.0439 84.4389 12.9892 84.1733 12.8746C83.9077 12.7601 83.6928 12.583 83.5287 12.3434C83.3647 12.1038 83.2827 11.803 83.2827 11.441V5.52307ZM92.685 6.96057V7.89807H89.4077V6.96057H92.685ZM90.2866 5.52307H91.4545V11.1989C91.4545 11.4254 91.4884 11.596 91.5561 11.7106C91.6238 11.8226 91.711 11.8994 91.8178 11.941C91.9272 11.9801 92.0457 11.9996 92.1733 11.9996C92.267 11.9996 92.3491 11.9931 92.4194 11.9801C92.4897 11.9671 92.5444 11.9567 92.5834 11.9489L92.7944 12.9137C92.7267 12.9397 92.6303 12.9658 92.5053 12.9918C92.3803 13.0205 92.2241 13.0361 92.0366 13.0387C91.7293 13.0439 91.4428 12.9892 91.1772 12.8746C90.9116 12.7601 90.6967 12.583 90.5327 12.3434C90.3686 12.1038 90.2866 11.803 90.2866 11.441V5.52307ZM95.2739 9.39807V12.9606H94.1059V4.96057H95.2582V7.93713H95.3325C95.4731 7.61422 95.6879 7.35771 95.977 7.1676C96.2661 6.9775 96.6437 6.88245 97.1098 6.88245C97.5213 6.88245 97.8806 6.96708 98.1879 7.13635C98.4978 7.30562 98.7374 7.55823 98.9067 7.89416C99.0786 8.2275 99.1645 8.64416 99.1645 9.14416V12.9606H97.9965V9.28479C97.9965 8.84469 97.8832 8.50354 97.6567 8.26135C97.4301 8.01656 97.115 7.89416 96.7114 7.89416C96.4353 7.89416 96.1879 7.95276 95.9692 8.06995C95.753 8.18713 95.5825 8.35901 95.4575 8.58557C95.3351 8.80953 95.2739 9.08036 95.2739 9.39807ZM103.309 13.0817C102.718 13.0817 102.209 12.9554 101.782 12.7028C101.357 12.4476 101.029 12.0895 100.797 11.6285C100.568 11.165 100.454 10.622 100.454 9.99963C100.454 9.38505 100.568 8.84338 100.797 8.37463C101.029 7.90588 101.352 7.54 101.766 7.27698C102.183 7.01396 102.67 6.88245 103.227 6.88245C103.566 6.88245 103.894 6.93844 104.211 7.05041C104.529 7.16239 104.814 7.33818 105.067 7.57776C105.319 7.81734 105.519 8.12854 105.664 8.51135C105.81 8.89156 105.883 9.3538 105.883 9.89807V10.3121H101.114V9.43713H104.739C104.739 9.12984 104.676 8.85771 104.551 8.62073C104.426 8.38114 104.25 8.19234 104.024 8.05432C103.8 7.9163 103.537 7.84729 103.235 7.84729C102.907 7.84729 102.62 7.92802 102.375 8.08948C102.133 8.24833 101.946 8.45666 101.813 8.71448C101.683 8.96969 101.618 9.24703 101.618 9.54651V10.2301C101.618 10.6311 101.688 10.9723 101.829 11.2535C101.972 11.5348 102.171 11.7496 102.426 11.8981C102.681 12.0439 102.98 12.1168 103.321 12.1168C103.542 12.1168 103.744 12.0856 103.926 12.0231C104.109 11.958 104.266 11.8616 104.399 11.734C104.532 11.6064 104.633 11.4489 104.704 11.2614L105.809 11.4606C105.72 11.7861 105.562 12.0712 105.332 12.316C105.106 12.5582 104.821 12.747 104.477 12.8824C104.136 13.0153 103.747 13.0817 103.309 13.0817ZM107.179 12.9606V6.96057H108.3V7.93713H108.374C108.499 7.6064 108.704 7.34859 108.988 7.1637C109.272 6.9762 109.611 6.88245 110.007 6.88245C110.408 6.88245 110.744 6.9762 111.015 7.1637C111.289 7.3512 111.49 7.60901 111.621 7.93713H111.683C111.826 7.61682 112.054 7.36161 112.367 7.17151C112.679 6.9788 113.052 6.88245 113.484 6.88245C114.028 6.88245 114.472 7.05302 114.816 7.39416C115.162 7.73531 115.335 8.24963 115.335 8.93713V12.9606H114.167V9.04651C114.167 8.64026 114.057 8.34599 113.835 8.1637C113.614 7.9814 113.35 7.89026 113.042 7.89026C112.662 7.89026 112.367 8.00745 112.156 8.24182C111.945 8.47359 111.839 8.77177 111.839 9.13635V12.9606H110.675V8.97229C110.675 8.64677 110.574 8.38505 110.371 8.18713C110.167 7.98922 109.903 7.89026 109.578 7.89026C109.356 7.89026 109.152 7.94885 108.964 8.06604C108.779 8.18062 108.63 8.34078 108.515 8.54651C108.403 8.75224 108.347 8.99052 108.347 9.26135V12.9606H107.179Z" fill="#4CA852"/>
</svg>
