<svg width="152" height="17" viewBox="0 0 152 17" fill="none" xmlns="http://www.w3.org/2000/svg">
<path d="M148.843 8.90771L149.338 8.41274L149.833 8.90771L149.338 9.40269L148.843 8.90771ZM138.843 9.60771C138.457 9.60771 138.143 9.29431 138.143 8.90771C138.143 8.52112 138.457 8.20771 138.843 8.20771V9.60771ZM145.338 4.41274L149.338 8.41274L148.348 9.40269L144.348 5.40269L145.338 4.41274ZM149.338 9.40269L145.338 13.4027L144.348 12.4127L148.348 8.41274L149.338 9.40269ZM148.843 9.60771H138.843V8.20771H148.843V9.60771Z" fill="#4CA852"/>
<path d="M0.932523 4.71271H2.08752L4.48552 11.5877L6.87252 4.71271H8.02752L5.07952 12.9077H3.89152L0.932523 4.71271ZM8.94044 6.97871H9.96344V12.9077H8.94044V6.97871ZM8.81944 5.39471C8.81944 5.20405 8.8781 5.05005 8.99544 4.93271C9.11277 4.81538 9.26677 4.75671 9.45744 4.75671C9.6481 4.75671 9.8021 4.81538 9.91944 4.93271C10.0368 5.05005 10.0954 5.20405 10.0954 5.39471C10.0954 5.58538 10.0368 5.73938 9.91944 5.85671C9.8021 5.97405 9.6481 6.03271 9.45744 6.03271C9.26677 6.03271 9.11277 5.97405 8.99544 5.85671C8.8781 5.73938 8.81944 5.58538 8.81944 5.39471ZM14.2788 13.0397C13.7215 13.0397 13.2155 12.904 12.7608 12.6327C12.3061 12.3614 11.9505 11.991 11.6938 11.5217C11.4371 11.045 11.3088 10.5134 11.3088 9.92671C11.3088 9.34005 11.4335 8.81205 11.6828 8.34271C11.9395 7.87338 12.2841 7.50671 12.7168 7.24271C13.1568 6.97871 13.6481 6.84671 14.1908 6.84671C14.7555 6.84671 15.2468 6.97871 15.6648 7.24271C16.0901 7.50671 16.4128 7.85871 16.6328 8.29871C16.8601 8.73138 16.9738 9.19705 16.9738 9.69571C16.9738 9.86438 16.9555 10.0477 16.9188 10.2457H12.3868C12.4015 10.6197 12.4968 10.946 12.6728 11.2247C12.8488 11.5034 13.0761 11.7197 13.3548 11.8737C13.6408 12.0277 13.9525 12.1047 14.2898 12.1047C15.0085 12.1047 15.5621 11.7784 15.9508 11.1257L16.8088 11.5657C16.6181 11.991 16.2955 12.343 15.8408 12.6217C15.3861 12.9004 14.8655 13.0397 14.2788 13.0397ZM15.8628 9.36571C15.8481 8.90371 15.6795 8.52238 15.3568 8.22171C15.0415 7.91371 14.6528 7.75971 14.1908 7.75971C13.7361 7.75971 13.3438 7.90638 13.0138 8.19971C12.6838 8.48571 12.4821 8.87438 12.4088 9.36571H15.8628ZM17.6366 6.97871H18.7696L20.1886 11.3237L21.5746 6.97871H22.5426L23.9286 11.3237L25.3586 6.97871H26.4806L24.4456 12.9077H23.4666L22.0586 8.44171L20.6506 12.9077H19.6716L17.6366 6.97871ZM29.9239 8.00171H28.7909V7.02271H29.9239V6.60471C29.9239 6.17938 30.0155 5.81271 30.1989 5.50471C30.3822 5.19671 30.6279 4.96205 30.9359 4.80071C31.2512 4.63205 31.6032 4.54771 31.9919 4.54771C32.1899 4.54771 32.3622 4.56605 32.5089 4.60271V5.51571C32.3989 5.49371 32.2669 5.48271 32.1129 5.48271C31.7535 5.48271 31.4712 5.57438 31.2659 5.75771C31.0605 5.93371 30.9579 6.21605 30.9579 6.60471V7.02271H32.3659V8.00171H30.9579V12.9077H29.9239V8.00171ZM35.77 13.0397C35.3446 13.0397 34.9633 12.9407 34.626 12.7427C34.2886 12.5447 34.0246 12.2697 33.834 11.9177C33.6433 11.5584 33.548 11.1477 33.548 10.6857V6.97871H34.571V10.5757C34.571 11.0157 34.703 11.3714 34.967 11.6427C35.231 11.914 35.5756 12.0497 36.001 12.0497C36.4263 12.0497 36.771 11.9104 37.035 11.6317C37.299 11.3457 37.431 10.9644 37.431 10.4877V6.97871H38.465V12.9077H37.464V12.1817C37.288 12.4604 37.0533 12.673 36.76 12.8197C36.4666 12.9664 36.1366 13.0397 35.77 13.0397ZM40.0498 4.58071H41.0728V12.9077H40.0498V4.58071ZM42.6602 4.58071H43.6832V12.9077H42.6602V4.58071ZM47.1719 6.97871H48.1729V7.80371C48.4075 7.50305 48.7009 7.26838 49.0529 7.09971C49.4122 6.93105 49.8119 6.84671 50.2519 6.84671C50.8019 6.84671 51.3005 6.98238 51.7479 7.25371C52.1952 7.52505 52.5472 7.89905 52.8039 8.37571C53.0605 8.84505 53.1889 9.36938 53.1889 9.94871C53.1889 10.528 53.0605 11.0524 52.8039 11.5217C52.5472 11.991 52.1952 12.3614 51.7479 12.6327C51.3005 12.904 50.7982 13.0397 50.2409 13.0397C49.8155 13.0397 49.4232 12.959 49.0639 12.7977C48.7119 12.629 48.4222 12.3907 48.1949 12.0827V15.1077H47.1719V6.97871ZM48.1949 9.94871C48.1949 10.3447 48.2792 10.704 48.4479 11.0267C48.6239 11.342 48.8622 11.5914 49.1629 11.7747C49.4635 11.958 49.7972 12.0497 50.1639 12.0497C50.5305 12.0497 50.8605 11.958 51.1539 11.7747C51.4545 11.5914 51.6855 11.342 51.8469 11.0267C52.0155 10.704 52.0999 10.3447 52.0999 9.94871C52.0999 9.55271 52.0155 9.19338 51.8469 8.87071C51.6782 8.54805 51.4472 8.29505 51.1539 8.11171C50.8605 7.92838 50.5305 7.83671 50.1639 7.83671C49.7972 7.83671 49.4635 7.92838 49.1629 8.11171C48.8622 8.29505 48.6239 8.54805 48.4479 8.87071C48.2792 9.19338 48.1949 9.55271 48.1949 9.94871ZM54.5303 6.97871H55.5313V7.68271C55.8393 7.16938 56.3636 6.91271 57.1043 6.91271H57.4673V7.88071H56.9503C56.5249 7.88071 56.1839 8.01271 55.9273 8.27671C55.6779 8.54071 55.5533 8.90738 55.5533 9.37671V12.9077H54.5303V6.97871ZM61.192 13.0397C60.6273 13.0397 60.1103 12.9077 59.641 12.6437C59.179 12.3724 58.8123 12.002 58.541 11.5327C58.2697 11.056 58.134 10.5244 58.134 9.93771C58.134 9.35838 58.266 8.83405 58.53 8.36471C58.8013 7.88805 59.168 7.51771 59.63 7.25371C60.0993 6.98238 60.62 6.84671 61.192 6.84671C61.7567 6.84671 62.27 6.98238 62.732 7.25371C63.2013 7.51771 63.568 7.88438 63.832 8.35371C64.1033 8.82305 64.239 9.35105 64.239 9.93771C64.239 10.5317 64.1033 11.0634 63.832 11.5327C63.5607 12.002 63.1903 12.3724 62.721 12.6437C62.259 12.9077 61.7493 13.0397 61.192 13.0397ZM59.212 9.93771C59.212 10.3337 59.2963 10.693 59.465 11.0157C59.641 11.3384 59.8793 11.5914 60.18 11.7747C60.488 11.958 60.8253 12.0497 61.192 12.0497C61.5513 12.0497 61.8813 11.958 62.182 11.7747C62.4827 11.5914 62.7173 11.3384 62.886 11.0157C63.062 10.693 63.15 10.3337 63.15 9.93771C63.15 9.54171 63.062 9.18605 62.886 8.87071C62.7173 8.54805 62.4827 8.29505 62.182 8.11171C61.8813 7.92838 61.5513 7.83671 61.192 7.83671C60.8253 7.83671 60.488 7.92838 60.18 8.11171C59.8793 8.29505 59.641 8.54805 59.465 8.87071C59.2963 9.18605 59.212 9.54171 59.212 9.93771ZM68.4003 15.3277C67.7769 15.3277 67.2269 15.1847 66.7503 14.8987C66.2809 14.62 65.9473 14.246 65.7493 13.7767L66.7063 13.3367C66.8163 13.63 67.0179 13.8684 67.3113 14.0517C67.6046 14.2424 67.9639 14.3377 68.3893 14.3377C68.9099 14.3377 69.3426 14.1874 69.6873 13.8867C70.0319 13.5934 70.2043 13.1827 70.2043 12.6547V11.8297C69.9843 12.1304 69.7019 12.3614 69.3573 12.5227C69.0126 12.684 68.6386 12.7647 68.2353 12.7647C67.6853 12.7647 67.1903 12.6364 66.7503 12.3797C66.3103 12.1157 65.9619 11.76 65.7053 11.3127C65.4559 10.858 65.3313 10.3557 65.3313 9.80571C65.3313 9.25571 65.4559 8.75705 65.7053 8.30971C65.9546 7.85505 66.2993 7.49938 66.7393 7.24271C67.1793 6.97871 67.6743 6.84671 68.2243 6.84671C68.6349 6.84671 69.0126 6.93105 69.3573 7.09971C69.7019 7.26105 69.9953 7.49571 70.2373 7.80371V6.97871H71.2383V12.6547C71.2383 13.168 71.1173 13.6264 70.8753 14.0297C70.6333 14.433 70.2959 14.7484 69.8633 14.9757C69.4306 15.2104 68.9429 15.3277 68.4003 15.3277ZM66.4093 9.80571C66.4093 10.165 66.4899 10.495 66.6513 10.7957C66.8199 11.0964 67.0509 11.3347 67.3443 11.5107C67.6376 11.6867 67.9639 11.7747 68.3233 11.7747C68.6679 11.7747 68.9833 11.6867 69.2693 11.5107C69.5626 11.3347 69.7899 11.0964 69.9513 10.7957C70.1199 10.495 70.2043 10.165 70.2043 9.80571C70.2043 9.44638 70.1199 9.11638 69.9513 8.81571C69.7899 8.51505 69.5626 8.27671 69.2693 8.10071C68.9833 7.92471 68.6679 7.83671 68.3233 7.83671C67.9639 7.83671 67.6376 7.92471 67.3443 8.10071C67.0583 8.27671 66.8309 8.51505 66.6623 8.81571C66.4936 9.11638 66.4093 9.44638 66.4093 9.80571ZM72.8242 6.97871H73.8252V7.68271C74.1332 7.16938 74.6576 6.91271 75.3982 6.91271H75.7612V7.88071H75.2442C74.8189 7.88071 74.4779 8.01271 74.2212 8.27671C73.9719 8.54071 73.8472 8.90738 73.8472 9.37671V12.9077H72.8242V6.97871ZM79.3979 13.0397C78.8406 13.0397 78.3346 12.904 77.8799 12.6327C77.4253 12.3614 77.0696 11.991 76.8129 11.5217C76.5563 11.045 76.4279 10.5134 76.4279 9.92671C76.4279 9.34005 76.5526 8.81205 76.8019 8.34271C77.0586 7.87338 77.4033 7.50671 77.8359 7.24271C78.2759 6.97871 78.7673 6.84671 79.3099 6.84671C79.8746 6.84671 80.3659 6.97871 80.7839 7.24271C81.2093 7.50671 81.5319 7.85871 81.7519 8.29871C81.9793 8.73138 82.0929 9.19705 82.0929 9.69571C82.0929 9.86438 82.0746 10.0477 82.0379 10.2457H77.5059C77.5206 10.6197 77.6159 10.946 77.7919 11.2247C77.9679 11.5034 78.1953 11.7197 78.4739 11.8737C78.7599 12.0277 79.0716 12.1047 79.4089 12.1047C80.1276 12.1047 80.6813 11.7784 81.0699 11.1257L81.9279 11.5657C81.7373 11.991 81.4146 12.343 80.9599 12.6217C80.5053 12.9004 79.9846 13.0397 79.3979 13.0397ZM80.9819 9.36571C80.9673 8.90371 80.7986 8.52238 80.4759 8.22171C80.1606 7.91371 79.7719 7.75971 79.3099 7.75971C78.8553 7.75971 78.4629 7.90638 78.1329 8.19971C77.8029 8.48571 77.6013 8.87438 77.5279 9.36571H80.9819ZM85.5498 13.0397C84.9778 13.0397 84.4718 12.9004 84.0318 12.6217C83.5918 12.3357 83.2764 11.9507 83.0858 11.4667L83.9108 11.0487C84.0794 11.3934 84.3104 11.6647 84.6038 11.8627C84.8971 12.0607 85.2161 12.1597 85.5608 12.1597C85.8908 12.1597 86.1621 12.0827 86.3748 11.9287C86.5874 11.7747 86.6938 11.573 86.6938 11.3237C86.6938 11.0817 86.5984 10.8874 86.4078 10.7407C86.2171 10.5867 86.0118 10.495 85.7918 10.4657L84.9008 10.3447C84.3728 10.2127 83.9768 9.99271 83.7128 9.68471C83.4488 9.37671 83.3168 9.01371 83.3168 8.59571C83.3168 8.25105 83.4048 7.94671 83.5808 7.68271C83.7641 7.41871 84.0134 7.21338 84.3288 7.06671C84.6514 6.92005 85.0071 6.84671 85.3958 6.84671C85.9091 6.84671 86.3674 6.97505 86.7708 7.23171C87.1814 7.48838 87.4748 7.84405 87.6508 8.29871L86.8368 8.71671C86.6901 8.41605 86.4848 8.17771 86.2208 8.00171C85.9641 7.82571 85.6781 7.73771 85.3628 7.73771C85.0621 7.73771 84.8201 7.81105 84.6368 7.95771C84.4534 8.10438 84.3618 8.29505 84.3618 8.52971C84.3618 8.77171 84.4461 8.96605 84.6148 9.11271C84.7908 9.25205 84.9814 9.34005 85.1868 9.37671L86.1658 9.50871C86.6571 9.64071 87.0384 9.86805 87.3098 10.1907C87.5884 10.506 87.7278 10.8727 87.7278 11.2907C87.7278 11.628 87.6361 11.9287 87.4528 12.1927C87.2694 12.4567 87.0128 12.6657 86.6828 12.8197C86.3528 12.9664 85.9751 13.0397 85.5498 13.0397ZM91.1679 13.0397C90.5959 13.0397 90.0899 12.9004 89.6499 12.6217C89.2099 12.3357 88.8946 11.9507 88.7039 11.4667L89.5289 11.0487C89.6976 11.3934 89.9286 11.6647 90.2219 11.8627C90.5153 12.0607 90.8343 12.1597 91.1789 12.1597C91.5089 12.1597 91.7803 12.0827 91.9929 11.9287C92.2056 11.7747 92.3119 11.573 92.3119 11.3237C92.3119 11.0817 92.2166 10.8874 92.0259 10.7407C91.8353 10.5867 91.6299 10.495 91.4099 10.4657L90.5189 10.3447C89.9909 10.2127 89.5949 9.99271 89.3309 9.68471C89.0669 9.37671 88.9349 9.01371 88.9349 8.59571C88.9349 8.25105 89.0229 7.94671 89.1989 7.68271C89.3823 7.41871 89.6316 7.21338 89.9469 7.06671C90.2696 6.92005 90.6253 6.84671 91.0139 6.84671C91.5273 6.84671 91.9856 6.97505 92.3889 7.23171C92.7996 7.48838 93.0929 7.84405 93.2689 8.29871L92.4549 8.71671C92.3083 8.41605 92.1029 8.17771 91.8389 8.00171C91.5823 7.82571 91.2963 7.73771 90.9809 7.73771C90.6803 7.73771 90.4383 7.81105 90.2549 7.95771C90.0716 8.10438 89.9799 8.29505 89.9799 8.52971C89.9799 8.77171 90.0643 8.96605 90.2329 9.11271C90.4089 9.25205 90.5996 9.34005 90.8049 9.37671L91.7839 9.50871C92.2753 9.64071 92.6566 9.86805 92.9279 10.1907C93.2066 10.506 93.3459 10.8727 93.3459 11.2907C93.3459 11.628 93.2543 11.9287 93.0709 12.1927C92.8876 12.4567 92.6309 12.6657 92.3009 12.8197C91.9709 12.9664 91.5933 13.0397 91.1679 13.0397ZM96.5645 6.97871H97.5655V7.68271C97.8735 7.16938 98.3978 6.91271 99.1385 6.91271H99.5015V7.88071H98.9845C98.5591 7.88071 98.2181 8.01271 97.9615 8.27671C97.7121 8.54071 97.5875 8.90738 97.5875 9.37671V12.9077H96.5645V6.97871ZM103.138 13.0397C102.581 13.0397 102.075 12.904 101.62 12.6327C101.165 12.3614 100.81 11.991 100.553 11.5217C100.296 11.045 100.168 10.5134 100.168 9.92671C100.168 9.34005 100.293 8.81205 100.542 8.34271C100.799 7.87338 101.143 7.50671 101.576 7.24271C102.016 6.97871 102.507 6.84671 103.05 6.84671C103.615 6.84671 104.106 6.97871 104.524 7.24271C104.949 7.50671 105.272 7.85871 105.492 8.29871C105.719 8.73138 105.833 9.19705 105.833 9.69571C105.833 9.86438 105.815 10.0477 105.778 10.2457H101.246C101.261 10.6197 101.356 10.946 101.532 11.2247C101.708 11.5034 101.935 11.7197 102.214 11.8737C102.5 12.0277 102.812 12.1047 103.149 12.1047C103.868 12.1047 104.421 11.7784 104.81 11.1257L105.668 11.5657C105.477 11.991 105.155 12.343 104.7 12.6217C104.245 12.9004 103.725 13.0397 103.138 13.0397ZM104.722 9.36571C104.707 8.90371 104.539 8.52238 104.216 8.22171C103.901 7.91371 103.512 7.75971 103.05 7.75971C102.595 7.75971 102.203 7.90638 101.873 8.19971C101.543 8.48571 101.341 8.87438 101.268 9.36571H104.722ZM107.167 6.97871H108.168V7.80371C108.403 7.50305 108.696 7.26838 109.048 7.09971C109.407 6.93105 109.807 6.84671 110.247 6.84671C110.797 6.84671 111.296 6.98238 111.743 7.25371C112.19 7.52505 112.542 7.89905 112.799 8.37571C113.056 8.84505 113.184 9.36938 113.184 9.94871C113.184 10.528 113.056 11.0524 112.799 11.5217C112.542 11.991 112.19 12.3614 111.743 12.6327C111.296 12.904 110.793 13.0397 110.236 13.0397C109.811 13.0397 109.418 12.959 109.059 12.7977C108.707 12.629 108.417 12.3907 108.19 12.0827V15.1077H107.167V6.97871ZM108.19 9.94871C108.19 10.3447 108.274 10.704 108.443 11.0267C108.619 11.342 108.857 11.5914 109.158 11.7747C109.459 11.958 109.792 12.0497 110.159 12.0497C110.526 12.0497 110.856 11.958 111.149 11.7747C111.45 11.5914 111.681 11.342 111.842 11.0267C112.011 10.704 112.095 10.3447 112.095 9.94871C112.095 9.55271 112.011 9.19338 111.842 8.87071C111.673 8.54805 111.442 8.29505 111.149 8.11171C110.856 7.92838 110.526 7.83671 110.159 7.83671C109.792 7.83671 109.459 7.92838 109.158 8.11171C108.857 8.29505 108.619 8.54805 108.443 8.87071C108.274 9.19338 108.19 9.55271 108.19 9.94871ZM117.341 13.0397C116.777 13.0397 116.26 12.9077 115.79 12.6437C115.328 12.3724 114.962 12.002 114.69 11.5327C114.419 11.056 114.283 10.5244 114.283 9.93771C114.283 9.35838 114.415 8.83405 114.679 8.36471C114.951 7.88805 115.317 7.51771 115.779 7.25371C116.249 6.98238 116.769 6.84671 117.341 6.84671C117.906 6.84671 118.419 6.98238 118.881 7.25371C119.351 7.51771 119.717 7.88438 119.981 8.35371C120.253 8.82305 120.388 9.35105 120.388 9.93771C120.388 10.5317 120.253 11.0634 119.981 11.5327C119.71 12.002 119.34 12.3724 118.87 12.6437C118.408 12.9077 117.899 13.0397 117.341 13.0397ZM115.361 9.93771C115.361 10.3337 115.446 10.693 115.614 11.0157C115.79 11.3384 116.029 11.5914 116.329 11.7747C116.637 11.958 116.975 12.0497 117.341 12.0497C117.701 12.0497 118.031 11.958 118.331 11.7747C118.632 11.5914 118.867 11.3384 119.035 11.0157C119.211 10.693 119.299 10.3337 119.299 9.93771C119.299 9.54171 119.211 9.18605 119.035 8.87071C118.867 8.54805 118.632 8.29505 118.331 8.11171C118.031 7.92838 117.701 7.83671 117.341 7.83671C116.975 7.83671 116.637 7.92838 116.329 8.11171C116.029 8.29505 115.79 8.54805 115.614 8.87071C115.446 9.18605 115.361 9.54171 115.361 9.93771ZM121.723 6.97871H122.724V7.68271C123.032 7.16938 123.556 6.91271 124.297 6.91271H124.66V7.88071H124.143C123.717 7.88071 123.376 8.01271 123.12 8.27671C122.87 8.54071 122.746 8.90738 122.746 9.37671V12.9077H121.723V6.97871ZM128.031 12.9737C127.452 12.9737 127.004 12.8124 126.689 12.4897C126.381 12.1597 126.227 11.6904 126.227 11.0817V7.95771H125.149V6.97871H125.369C125.633 6.97871 125.842 6.90171 125.996 6.74771C126.15 6.58638 126.227 6.37005 126.227 6.09871V5.61471H127.25V6.97871H128.581V7.95771H127.25V11.0487C127.25 11.7087 127.58 12.0387 128.24 12.0387C128.379 12.0387 128.515 12.0277 128.647 12.0057V12.9187C128.493 12.9554 128.288 12.9737 128.031 12.9737Z" fill="#4CA852"/>
</svg>
