<svg width="59" height="17" viewBox="0 0 59 17" fill="none" xmlns="http://www.w3.org/2000/svg">
<path d="M55.965 8.71887L56.4599 8.2239L56.9549 8.71887L56.4599 9.21385L55.965 8.71887ZM45.965 9.41887C45.5784 9.41887 45.265 9.10547 45.265 8.71887C45.265 8.33227 45.5784 8.01887 45.965 8.01887V9.41887ZM52.4599 4.2239L56.4599 8.2239L55.47 9.21385L51.47 5.21385L52.4599 4.2239ZM56.4599 9.21385L52.4599 13.2138L51.47 12.2239L55.47 8.2239L56.4599 9.21385ZM55.965 9.41887H45.965V8.01887H55.965V9.41887Z" fill="#4CA852"/>
<path d="M6.23718 6.82043C6.19552 6.45064 6.02364 6.16418 5.72156 5.96106C5.41947 5.75533 5.03927 5.65247 4.58093 5.65247C4.25281 5.65247 3.96895 5.70455 3.72937 5.80872C3.48979 5.91028 3.30359 6.0509 3.17078 6.23059C3.04057 6.40767 2.97546 6.6095 2.97546 6.83606C2.97546 7.02616 3.01973 7.19023 3.10828 7.32825C3.19942 7.46627 3.31791 7.58215 3.46375 7.6759C3.61218 7.76705 3.77104 7.84387 3.94031 7.90637C4.10958 7.96627 4.27234 8.01575 4.42859 8.05481L5.20984 8.25793C5.46505 8.32043 5.72677 8.40507 5.995 8.51184C6.26322 8.61861 6.51192 8.75924 6.74109 8.93372C6.97026 9.10819 7.15515 9.32434 7.29578 9.58215C7.43901 9.83997 7.51062 10.1486 7.51062 10.5079C7.51062 10.9611 7.39343 11.3634 7.15906 11.715C6.92729 12.0665 6.59005 12.3439 6.14734 12.547C5.70723 12.7501 5.17468 12.8517 4.54968 12.8517C3.95072 12.8517 3.4325 12.7566 2.995 12.5665C2.5575 12.3764 2.21505 12.1069 1.96765 11.7579C1.72026 11.4064 1.58354 10.9897 1.5575 10.5079H2.76843C2.79187 10.797 2.88562 11.0379 3.04968 11.2306C3.21635 11.4207 3.42859 11.5626 3.6864 11.6564C3.94682 11.7475 4.23197 11.7931 4.54187 11.7931C4.88302 11.7931 5.1864 11.7397 5.45203 11.6329C5.72026 11.5236 5.93119 11.3725 6.08484 11.1798C6.23848 10.9845 6.31531 10.7566 6.31531 10.4962C6.31531 10.2592 6.2476 10.0652 6.11218 9.91418C5.97937 9.76314 5.79838 9.63814 5.56921 9.53918C5.34265 9.44023 5.08614 9.35299 4.79968 9.27747L3.85437 9.01965C3.21375 8.84517 2.70593 8.58866 2.33093 8.25012C1.95854 7.91158 1.77234 7.46366 1.77234 6.90637C1.77234 6.44543 1.89734 6.04309 2.14734 5.69934C2.39734 5.35559 2.73588 5.08866 3.16296 4.89856C3.59005 4.70585 4.07182 4.6095 4.60828 4.6095C5.14994 4.6095 5.62781 4.70455 6.04187 4.89465C6.45854 5.08476 6.78666 5.34648 7.02625 5.67981C7.26583 6.01054 7.39083 6.39075 7.40125 6.82043H6.23718ZM11.4452 12.84C10.854 12.84 10.3449 12.7137 9.91785 12.4611C9.49337 12.2059 9.16524 11.8478 8.93347 11.3868C8.70431 10.9233 8.58972 10.3803 8.58972 9.75793C8.58972 9.14335 8.70431 8.60168 8.93347 8.13293C9.16524 7.66418 9.48816 7.2983 9.90222 7.03528C10.3189 6.77226 10.8059 6.64075 11.3632 6.64075C11.7017 6.64075 12.0298 6.69674 12.3475 6.80872C12.6652 6.92069 12.9504 7.09648 13.203 7.33606C13.4556 7.57564 13.6548 7.88684 13.8007 8.26965C13.9465 8.64986 14.0194 9.1121 14.0194 9.65637V10.0704H9.24988V9.19543H12.8749C12.8749 8.88814 12.8124 8.61601 12.6874 8.37903C12.5624 8.13944 12.3866 7.95064 12.16 7.81262C11.9361 7.6746 11.6731 7.60559 11.371 7.60559C11.0428 7.60559 10.7564 7.68632 10.5116 7.84778C10.2694 8.00663 10.0819 8.21497 9.9491 8.47278C9.81889 8.72799 9.75378 9.00533 9.75378 9.30481V9.9884C9.75378 10.3894 9.8241 10.7306 9.96472 11.0118C10.108 11.2931 10.3072 11.5079 10.5624 11.6564C10.8176 11.8022 11.1158 11.8751 11.4569 11.8751C11.6783 11.8751 11.8801 11.8439 12.0624 11.7814C12.2447 11.7163 12.4022 11.6199 12.535 11.4923C12.6678 11.3647 12.7694 11.2072 12.8397 11.0197L13.9452 11.2189C13.8566 11.5444 13.6978 11.8295 13.4686 12.0743C13.2421 12.3165 12.9569 12.5053 12.6132 12.6407C12.272 12.7736 11.8827 12.84 11.4452 12.84ZM17.9012 12.84C17.3101 12.84 16.801 12.7137 16.3739 12.4611C15.9494 12.2059 15.6213 11.8478 15.3895 11.3868C15.1604 10.9233 15.0458 10.3803 15.0458 9.75793C15.0458 9.14335 15.1604 8.60168 15.3895 8.13293C15.6213 7.66418 15.9442 7.2983 16.3583 7.03528C16.7749 6.77226 17.2619 6.64075 17.8192 6.64075C18.1578 6.64075 18.4859 6.69674 18.8036 6.80872C19.1213 6.92069 19.4065 7.09648 19.6591 7.33606C19.9117 7.57564 20.1109 7.88684 20.2567 8.26965C20.4025 8.64986 20.4755 9.1121 20.4755 9.65637V10.0704H15.7059V9.19543H19.3309C19.3309 8.88814 19.2684 8.61601 19.1434 8.37903C19.0184 8.13944 18.8427 7.95064 18.6161 7.81262C18.3921 7.6746 18.1291 7.60559 17.827 7.60559C17.4989 7.60559 17.2124 7.68632 16.9677 7.84778C16.7255 8.00663 16.538 8.21497 16.4052 8.47278C16.2749 8.72799 16.2098 9.00533 16.2098 9.30481V9.9884C16.2098 10.3894 16.2802 10.7306 16.4208 11.0118C16.564 11.2931 16.7632 11.5079 17.0184 11.6564C17.2736 11.8022 17.5718 11.8751 17.913 11.8751C18.1343 11.8751 18.3361 11.8439 18.5184 11.7814C18.7007 11.7163 18.8583 11.6199 18.9911 11.4923C19.1239 11.3647 19.2255 11.2072 19.2958 11.0197L20.4012 11.2189C20.3127 11.5444 20.1538 11.8295 19.9247 12.0743C19.6981 12.3165 19.413 12.5053 19.0692 12.6407C18.7281 12.7736 18.3387 12.84 17.9012 12.84ZM26.4286 12.8517C26.0484 12.8517 25.7046 12.7814 25.3973 12.6407C25.09 12.4975 24.8466 12.2905 24.6669 12.0197C24.4898 11.7488 24.4012 11.4168 24.4012 11.0236C24.4012 10.685 24.4663 10.4064 24.5966 10.1876C24.7268 9.96887 24.9025 9.79569 25.1239 9.66809C25.3453 9.54049 25.5927 9.44413 25.8661 9.37903C26.1395 9.31392 26.4182 9.26444 26.702 9.23059C27.0614 9.18892 27.3531 9.15507 27.577 9.12903C27.801 9.10038 27.9637 9.05481 28.0653 8.99231C28.1669 8.92981 28.2177 8.82825 28.2177 8.68762V8.66028C28.2177 8.31913 28.1213 8.05481 27.9286 7.86731C27.7385 7.67981 27.4546 7.58606 27.077 7.58606C26.6838 7.58606 26.3739 7.6733 26.1473 7.84778C25.9234 8.01965 25.7684 8.21106 25.6825 8.422L24.5848 8.172C24.715 7.80741 24.9052 7.51314 25.1552 7.28918C25.4078 7.06262 25.6981 6.89856 26.0262 6.797C26.3544 6.69283 26.6994 6.64075 27.0614 6.64075C27.301 6.64075 27.5549 6.66939 27.8231 6.72668C28.094 6.78137 28.3466 6.88293 28.5809 7.03137C28.8179 7.17981 29.0119 7.39205 29.163 7.66809C29.314 7.94153 29.3895 8.297 29.3895 8.7345V12.7189H28.2489V11.8986H28.202C28.1265 12.0496 28.0132 12.198 27.8622 12.3439C27.7111 12.4897 27.5171 12.6108 27.2802 12.7072C27.0432 12.8035 26.7593 12.8517 26.4286 12.8517ZM26.6825 11.9142C27.0054 11.9142 27.2815 11.8504 27.5106 11.7228C27.7424 11.5952 27.9182 11.4285 28.038 11.2228C28.1604 11.0144 28.2216 10.7918 28.2216 10.5548V9.78137C28.1799 9.82304 28.0992 9.8621 27.9794 9.89856C27.8622 9.93241 27.7281 9.96236 27.577 9.9884C27.426 10.0118 27.2788 10.034 27.1356 10.0548C26.9924 10.073 26.8726 10.0887 26.7762 10.1017C26.5497 10.1303 26.3427 10.1785 26.1552 10.2462C25.9703 10.3139 25.8218 10.4116 25.7098 10.5392C25.6005 10.6642 25.5458 10.8309 25.5458 11.0392C25.5458 11.3282 25.6525 11.547 25.8661 11.6954C26.0796 11.8413 26.3518 11.9142 26.6825 11.9142ZM32.1132 4.71887V12.7189H30.9452V4.71887H32.1132ZM34.8524 4.71887V12.7189H33.6844V4.71887H34.8524Z" fill="#4CA852"/>
</svg>
