<svg width="159" height="56" viewBox="0 0 159 56" fill="none" xmlns="http://www.w3.org/2000/svg">
<path d="M3.14336 2.51496C4.35936 1.29896 6.00203 0.690956 8.07136 0.690956C10.1407 0.690956 11.762 1.25629 12.9354 2.38696C14.13 3.49629 14.77 5.09629 14.8554 7.18696H11.2074C11.186 6.16296 10.8767 5.36296 10.2794 4.78696C9.70336 4.18962 8.93536 3.89096 7.97536 3.89096C7.0367 3.89096 6.29003 4.15762 5.73536 4.69096C5.20203 5.20296 4.93536 5.91762 4.93536 6.83496C4.93536 7.75229 5.23403 8.44562 5.83136 8.91496C6.4287 9.38429 7.53803 9.92829 9.15936 10.547C11.4634 11.3363 13.106 12.2536 14.0874 13.299C15.0687 14.2803 15.5594 15.6136 15.5594 17.299C15.5594 19.3683 14.8874 20.9896 13.5434 22.163C12.2207 23.3363 10.4927 23.923 8.35936 23.923C5.97003 23.923 4.11403 23.2936 2.79136 22.035C1.46869 20.755 0.786028 19.0056 0.743361 16.787H4.35936C4.40203 18.067 4.7647 19.0483 5.44736 19.731C6.15136 20.4136 7.1327 20.755 8.39136 20.755C9.5007 20.755 10.3647 20.467 10.9834 19.891C11.6234 19.315 11.9434 18.5363 11.9434 17.555C11.9434 16.723 11.6127 16.0296 10.9514 15.475C10.3114 14.9203 9.18069 14.3763 7.55936 13.843C5.42603 13.1176 3.84736 12.2536 2.82336 11.251C1.82069 10.2483 1.31936 8.87229 1.31936 7.12296C1.31936 5.24562 1.92736 3.70962 3.14336 2.51496ZM25.7061 6.96296C27.9674 6.96296 29.7701 7.68829 31.1141 9.13896C32.4581 10.5896 33.1301 12.6376 33.1301 15.283V16.595H21.3221C21.4074 17.8963 21.8554 18.931 22.6661 19.699C23.4981 20.467 24.5434 20.851 25.8021 20.851C27.7648 20.851 29.0554 20.083 29.6741 18.547H33.0021C32.4901 20.2536 31.6048 21.5656 30.3461 22.483C29.1088 23.4003 27.5621 23.859 25.7061 23.859C23.3594 23.859 21.4501 23.091 19.9781 21.555C18.5274 19.9976 17.8021 17.9603 17.8021 15.443C17.8021 12.9683 18.5274 10.9416 19.9781 9.36296C21.4288 7.76296 23.3381 6.96296 25.7061 6.96296ZM28.5541 11.027C27.8288 10.3016 26.8688 9.93896 25.6741 9.93896C24.4794 9.93896 23.4874 10.3123 22.6981 11.059C21.9088 11.7843 21.4608 12.7443 21.3541 13.939H29.7061C29.6848 12.723 29.3008 11.7523 28.5541 11.027ZM36.8954 0.146957H40.2874V23.507H36.8954V0.146957ZM51.6749 6.96296C53.9362 6.96296 55.7389 7.68829 57.0829 9.13896C58.4269 10.5896 59.0989 12.6376 59.0989 15.283V16.595H47.2909C47.3762 17.8963 47.8242 18.931 48.6349 19.699C49.4669 20.467 50.5122 20.851 51.7709 20.851C53.7335 20.851 55.0242 20.083 55.6429 18.547H58.9709C58.4589 20.2536 57.5735 21.5656 56.3149 22.483C55.0775 23.4003 53.5309 23.859 51.6749 23.859C49.3282 23.859 47.4189 23.091 45.9469 21.555C44.4962 19.9976 43.7709 17.9603 43.7709 15.443C43.7709 12.9683 44.4962 10.9416 45.9469 9.36296C47.3975 7.76296 49.3069 6.96296 51.6749 6.96296ZM54.5229 11.027C53.7975 10.3016 52.8375 9.93896 51.6429 9.93896C50.4482 9.93896 49.4562 10.3123 48.6669 11.059C47.8775 11.7843 47.4295 12.7443 47.3229 13.939H55.6749C55.6535 12.723 55.2695 11.7523 54.5229 11.027ZM69.7389 6.96296C71.6802 6.96296 73.3015 7.46429 74.6029 8.46696C75.9042 9.46962 76.7255 10.8776 77.0669 12.691H73.7389C73.4615 11.859 72.9709 11.219 72.2669 10.771C71.5842 10.323 70.7629 10.099 69.8029 10.099C68.5229 10.099 67.4455 10.6003 66.5709 11.603C65.7175 12.5843 65.2909 13.8643 65.2909 15.443C65.2909 16.979 65.7175 18.2376 66.5709 19.219C67.4455 20.2216 68.5442 20.723 69.8669 20.723C70.8055 20.723 71.6269 20.4883 72.3309 20.019C73.0349 19.5496 73.5042 18.931 73.7389 18.163H77.0989C76.7149 19.9763 75.8615 21.3843 74.5389 22.387C73.2162 23.3683 71.6162 23.859 69.7389 23.859C67.4135 23.859 65.5042 23.0803 64.0109 21.523C62.5175 19.9656 61.7709 17.939 61.7709 15.443C61.7709 12.9683 62.5175 10.9416 64.0109 9.36296C65.5255 7.76296 67.4349 6.96296 69.7389 6.96296ZM81.5406 3.34696H84.9646L84.9326 7.31496H88.8686V10.451H84.9006L84.8366 18.131C84.8366 19.0483 84.9966 19.699 85.3166 20.083C85.6366 20.4456 86.2126 20.627 87.0446 20.627C87.7059 20.627 88.3139 20.5416 88.8686 20.371V23.379C88.2286 23.6136 87.3966 23.731 86.3726 23.731C84.6873 23.731 83.4393 23.3363 82.6286 22.547C81.8179 21.7576 81.4233 20.531 81.4446 18.867L81.5086 10.451H78.6606V7.31496H81.5086L81.5406 3.34696ZM108.594 7.31496H112.242L103.666 30.387H100.114L102.706 23.283L96.7864 7.31496H100.434L104.178 18.163L104.498 19.475L104.818 18.163L108.594 7.31496ZM115.857 9.33096C117.436 7.75229 119.43 6.96296 121.841 6.96296C124.252 6.96296 126.246 7.75229 127.825 9.33096C129.404 10.9096 130.193 12.9363 130.193 15.411C130.193 17.8856 129.404 19.9123 127.825 21.491C126.246 23.0696 124.252 23.859 121.841 23.859C119.43 23.859 117.436 23.0696 115.857 21.491C114.3 19.9336 113.521 17.907 113.521 15.411C113.521 12.915 114.3 10.8883 115.857 9.33096ZM125.329 11.603C124.454 10.6003 123.302 10.099 121.873 10.099C120.444 10.099 119.281 10.6003 118.385 11.603C117.489 12.5843 117.041 13.8536 117.041 15.411C117.041 16.9683 117.489 18.2376 118.385 19.219C119.281 20.2216 120.444 20.723 121.873 20.723C123.302 20.723 124.454 20.2216 125.329 19.219C126.225 18.2376 126.673 16.9683 126.673 15.411C126.673 13.8536 126.225 12.5843 125.329 11.603ZM142.765 7.31496H146.157V23.507H143.181L142.957 21.331C142.125 23.0163 140.663 23.859 138.573 23.859C136.887 23.859 135.597 23.3256 134.701 22.259C133.826 21.1923 133.389 19.7096 133.389 17.811V7.31496H136.781V17.139C136.781 19.4216 137.687 20.563 139.501 20.563C140.482 20.563 141.271 20.179 141.869 19.411C142.466 18.6216 142.765 17.5443 142.765 16.179V7.31496ZM158.991 7.15496V10.579C157.647 10.579 156.57 10.9416 155.759 11.667C154.863 12.4136 154.394 13.555 154.351 15.091V23.507H150.959V7.31496H153.935L154.223 10.067C154.543 9.19229 155.109 8.48829 155.919 7.95496C156.73 7.42162 157.754 7.15496 158.991 7.15496Z" fill="black"/>
<path d="M7.71936 38.931C3.97536 38.931 1.47936 41.267 1.25536 44.627H5.28736C5.28736 43.347 6.31136 42.483 7.71936 42.483C9.22336 42.483 9.99136 43.315 9.99136 44.947V45.555L5.79936 46.323C2.63136 46.835 0.775361 48.211 0.775361 51.187C0.775361 54.035 2.75936 55.859 5.70336 55.859C7.78336 55.859 9.31936 55.091 10.3434 53.523L10.5994 55.507H14.1514V44.851C14.1514 40.979 11.6874 38.931 7.71936 38.931ZM9.99136 48.819C9.99136 49.651 9.79936 50.355 9.41536 50.963C8.80736 51.955 7.94336 52.435 6.82336 52.435C5.63936 52.435 4.93536 51.827 4.93536 50.835C4.93536 49.907 5.54336 49.299 6.75936 49.011L9.99136 48.339V48.819ZM27.7394 39.283L24.5714 49.235L24.2514 50.643L23.9314 49.235L20.7634 39.283H16.2834L22.1394 55.507H26.3634L32.2514 39.283H27.7394ZM40.7194 38.931C36.9754 38.931 34.4794 41.267 34.2554 44.627H38.2874C38.2874 43.347 39.3114 42.483 40.7194 42.483C42.2234 42.483 42.9914 43.315 42.9914 44.947V45.555L38.7994 46.323C35.6314 46.835 33.7754 48.211 33.7754 51.187C33.7754 54.035 35.7594 55.859 38.7034 55.859C40.7834 55.859 42.3194 55.091 43.3434 53.523L43.5994 55.507H47.1514V44.851C47.1514 40.979 44.6874 38.931 40.7194 38.931ZM42.9914 48.819C42.9914 49.651 42.7994 50.355 42.4154 50.963C41.8074 51.955 40.9434 52.435 39.8234 52.435C38.6394 52.435 37.9354 51.827 37.9354 50.835C37.9354 49.907 38.5434 49.299 39.7594 49.011L42.9914 48.339V48.819ZM52.1634 35.347L52.1314 39.283H49.4754V43.059H52.1314L52.0674 50.611C52.0354 54.195 53.7954 55.731 57.4114 55.731C58.5314 55.731 59.4274 55.603 60.0354 55.379V51.731C59.4914 51.891 58.9474 51.955 58.3394 51.955C56.7714 51.955 56.2274 51.315 56.2274 49.619L56.2914 43.059H60.0354V39.283H56.3234L56.3554 35.347H52.1634ZM69.3444 38.931C65.6004 38.931 63.1044 41.267 62.8804 44.627H66.9124C66.9124 43.347 67.9364 42.483 69.3444 42.483C70.8484 42.483 71.6164 43.315 71.6164 44.947V45.555L67.4244 46.323C64.2564 46.835 62.4004 48.211 62.4004 51.187C62.4004 54.035 64.3844 55.859 67.3284 55.859C69.4084 55.859 70.9444 55.091 71.9684 53.523L72.2244 55.507H75.7764V44.851C75.7764 40.979 73.3124 38.931 69.3444 38.931ZM71.6164 48.819C71.6164 49.651 71.4244 50.355 71.0404 50.963C70.4324 51.955 69.5684 52.435 68.4484 52.435C67.2644 52.435 66.5604 51.827 66.5604 50.835C66.5604 49.907 67.1684 49.299 68.3844 49.011L71.6164 48.339V48.819ZM88.5964 39.123C86.0364 39.123 84.4684 40.243 83.8604 41.875L83.4764 39.283H79.8924V55.507H84.0524V47.251C84.1164 45.875 84.5644 44.883 85.3644 44.243C86.1964 43.603 87.2844 43.283 88.5964 43.283V39.123Z" fill="#0068FC"/>
</svg>
