<svg width="211" height="64" viewBox="0 0 211 64" fill="none" xmlns="http://www.w3.org/2000/svg">
<path d="M3.10943 3.34098C4.32543 2.12498 5.96809 1.51698 8.03743 1.51698C10.1068 1.51698 11.7281 2.08231 12.9014 3.21298C14.0961 4.32231 14.7361 5.92231 14.8214 8.01298H11.1734C11.1521 6.98898 10.8428 6.18898 10.2454 5.61298C9.66943 5.01564 8.90143 4.71698 7.94143 4.71698C7.00276 4.71698 6.25609 4.98364 5.70143 5.51698C5.16809 6.02898 4.90143 6.74364 4.90143 7.66098C4.90143 8.57831 5.20009 9.27164 5.79743 9.74098C6.39476 10.2103 7.50409 10.7543 9.12543 11.373C11.4294 12.1623 13.0721 13.0796 14.0534 14.125C15.0348 15.1063 15.5254 16.4396 15.5254 18.125C15.5254 20.1943 14.8534 21.8156 13.5094 22.989C12.1868 24.1623 10.4588 24.749 8.32543 24.749C5.93609 24.749 4.08009 24.1196 2.75743 22.861C1.43476 21.581 0.752092 19.8316 0.709426 17.613H4.32543C4.36809 18.893 4.73076 19.8743 5.41343 20.557C6.11743 21.2396 7.09876 21.581 8.35743 21.581C9.46676 21.581 10.3308 21.293 10.9494 20.717C11.5894 20.141 11.9094 19.3623 11.9094 18.381C11.9094 17.549 11.5788 16.8556 10.9174 16.301C10.2774 15.7463 9.14676 15.2023 7.52543 14.669C5.39209 13.9436 3.81343 13.0796 2.78943 12.077C1.78676 11.0743 1.28543 9.69831 1.28543 7.94898C1.28543 6.07164 1.89343 4.53564 3.10943 3.34098ZM25.6722 7.78898C27.9335 7.78898 29.7362 8.51431 31.0802 9.96498C32.4242 11.4156 33.0962 13.4636 33.0962 16.109V17.421H21.2882C21.3735 18.7223 21.8215 19.757 22.6322 20.525C23.4642 21.293 24.5095 21.677 25.7682 21.677C27.7308 21.677 29.0215 20.909 29.6402 19.373H32.9682C32.4562 21.0796 31.5708 22.3916 30.3122 23.309C29.0748 24.2263 27.5282 24.685 25.6722 24.685C23.3255 24.685 21.4162 23.917 19.9442 22.381C18.4935 20.8236 17.7682 18.7863 17.7682 16.269C17.7682 13.7943 18.4935 11.7676 19.9442 10.189C21.3948 8.58898 23.3042 7.78898 25.6722 7.78898ZM28.5202 11.853C27.7948 11.1276 26.8348 10.765 25.6402 10.765C24.4455 10.765 23.4535 11.1383 22.6642 11.885C21.8748 12.6103 21.4268 13.5703 21.3202 14.765H29.6722C29.6508 13.549 29.2668 12.5783 28.5202 11.853ZM36.8614 0.972977H40.2534V24.333H36.8614V0.972977ZM51.6409 7.78898C53.9023 7.78898 55.7049 8.51431 57.0489 9.96498C58.3929 11.4156 59.0649 13.4636 59.0649 16.109V17.421H47.2569C47.3423 18.7223 47.7903 19.757 48.6009 20.525C49.4329 21.293 50.4783 21.677 51.7369 21.677C53.6996 21.677 54.9903 20.909 55.6089 19.373H58.9369C58.4249 21.0796 57.5396 22.3916 56.2809 23.309C55.0436 24.2263 53.4969 24.685 51.6409 24.685C49.2943 24.685 47.3849 23.917 45.9129 22.381C44.4623 20.8236 43.7369 18.7863 43.7369 16.269C43.7369 13.7943 44.4623 11.7676 45.9129 10.189C47.3636 8.58898 49.2729 7.78898 51.6409 7.78898ZM54.4889 11.853C53.7636 11.1276 52.8036 10.765 51.6089 10.765C50.4143 10.765 49.4223 11.1383 48.6329 11.885C47.8436 12.6103 47.3956 13.5703 47.2889 14.765H55.6409C55.6196 13.549 55.2356 12.5783 54.4889 11.853ZM69.7049 7.78898C71.6463 7.78898 73.2676 8.29031 74.5689 9.29298C75.8703 10.2956 76.6916 11.7036 77.0329 13.517H73.7049C73.4276 12.685 72.9369 12.045 72.2329 11.597C71.5503 11.149 70.7289 10.925 69.7689 10.925C68.4889 10.925 67.4116 11.4263 66.5369 12.429C65.6836 13.4103 65.2569 14.6903 65.2569 16.269C65.2569 17.805 65.6836 19.0636 66.5369 20.045C67.4116 21.0476 68.5103 21.549 69.8329 21.549C70.7716 21.549 71.5929 21.3143 72.2969 20.845C73.0009 20.3756 73.4703 19.757 73.7049 18.989H77.0649C76.6809 20.8023 75.8276 22.2103 74.5049 23.213C73.1823 24.1943 71.5823 24.685 69.7049 24.685C67.3796 24.685 65.4703 23.9063 63.9769 22.349C62.4836 20.7916 61.7369 18.765 61.7369 16.269C61.7369 13.7943 62.4836 11.7676 63.9769 10.189C65.4916 8.58898 67.4009 7.78898 69.7049 7.78898ZM81.5067 4.17298H84.9307L84.8987 8.14098H88.8347V11.277H84.8667L84.8027 18.957C84.8027 19.8743 84.9627 20.525 85.2827 20.909C85.6027 21.2716 86.1787 21.453 87.0107 21.453C87.672 21.453 88.28 21.3676 88.8347 21.197V24.205C88.1947 24.4396 87.3627 24.557 86.3387 24.557C84.6533 24.557 83.4053 24.1623 82.5947 23.373C81.784 22.5836 81.3893 21.357 81.4107 19.693L81.4747 11.277H78.6267V8.14098H81.4747L81.5067 4.17298ZM99.6004 4.17298H103.024L102.992 8.14098H106.928V11.277H102.96L102.896 18.957C102.896 19.8743 103.056 20.525 103.376 20.909C103.696 21.2716 104.272 21.453 105.104 21.453C105.766 21.453 106.374 21.3676 106.928 21.197V24.205C106.288 24.4396 105.456 24.557 104.432 24.557C102.747 24.557 101.499 24.1623 100.688 23.373C99.8778 22.5836 99.4831 21.357 99.5044 19.693L99.5684 11.277H96.7204V8.14098H99.5684L99.6004 4.17298ZM110.297 0.972977H113.689V10.029C114.521 8.53564 115.94 7.78898 117.945 7.78898C119.609 7.78898 120.9 8.33298 121.817 9.42098C122.735 10.509 123.193 11.981 123.193 13.837V24.333H119.769V14.509C119.769 13.3996 119.524 12.557 119.033 11.981C118.564 11.405 117.892 11.117 117.017 11.117C116.015 11.117 115.204 11.5223 114.585 12.333C113.988 13.1436 113.689 14.2743 113.689 15.725V24.333H110.297V0.972977ZM134.266 7.78898C136.527 7.78898 138.33 8.51431 139.674 9.96498C141.018 11.4156 141.69 13.4636 141.69 16.109V17.421H129.882C129.967 18.7223 130.415 19.757 131.226 20.525C132.058 21.293 133.103 21.677 134.362 21.677C136.325 21.677 137.615 20.909 138.234 19.373H141.562C141.05 21.0796 140.165 22.3916 138.906 23.309C137.669 24.2263 136.122 24.685 134.266 24.685C131.919 24.685 130.01 23.917 128.538 22.381C127.087 20.8236 126.362 18.7863 126.362 16.269C126.362 13.7943 127.087 11.7676 128.538 10.189C129.989 8.58898 131.898 7.78898 134.266 7.78898ZM137.114 11.853C136.389 11.1276 135.429 10.765 134.234 10.765C133.039 10.765 132.047 11.1383 131.258 11.885C130.469 12.6103 130.021 13.5703 129.914 14.765H138.266C138.245 13.549 137.861 12.5783 137.114 11.853ZM2.88543 42.157C4.46409 40.5783 6.45876 39.789 8.86943 39.789C11.2801 39.789 13.2748 40.5783 14.8534 42.157C16.4321 43.7356 17.2214 45.7623 17.2214 48.237C17.2214 50.7116 16.4321 52.7383 14.8534 54.317C13.2748 55.8956 11.2801 56.685 8.86943 56.685C6.45876 56.685 4.46409 55.8956 2.88543 54.317C1.32809 52.7596 0.549426 50.733 0.549426 48.237C0.549426 45.741 1.32809 43.7143 2.88543 42.157ZM12.3574 44.429C11.4828 43.4263 10.3308 42.925 8.90143 42.925C7.47209 42.925 6.30943 43.4263 5.41343 44.429C4.51743 45.4103 4.06943 46.6796 4.06943 48.237C4.06943 49.7943 4.51743 51.0636 5.41343 52.045C6.30943 53.0476 7.47209 53.549 8.90143 53.549C10.3308 53.549 11.4828 53.0476 12.3574 52.045C13.2534 51.0636 13.7014 49.7943 13.7014 48.237C13.7014 46.6796 13.2534 45.4103 12.3574 44.429ZM29.3452 39.789C31.5638 39.789 33.3772 40.5996 34.7852 42.221C36.1932 43.821 36.8972 45.8263 36.8972 48.237C36.8972 50.6476 36.1825 52.6636 34.7532 54.285C33.3452 55.885 31.5425 56.685 29.3452 56.685C28.1932 56.685 27.1692 56.4716 26.2732 56.045C25.3772 55.597 24.6945 55.021 24.2252 54.317V63.213H20.8012V40.141H23.7772L24.0012 42.445C25.1958 40.6743 26.9772 39.789 29.3452 39.789ZM28.7372 42.989C27.5212 42.989 26.4438 43.4583 25.5052 44.397C24.5878 45.3143 24.1292 46.5516 24.1292 48.109V48.301C24.1718 49.8796 24.6305 51.1383 25.5052 52.077C26.4438 53.0156 27.5105 53.485 28.7052 53.485C30.0705 53.485 31.1798 52.9943 32.0332 52.013C32.9292 51.0103 33.3772 49.7516 33.3772 48.237C33.3772 46.6796 32.9398 45.421 32.0652 44.461C31.2118 43.4796 30.1025 42.989 28.7372 42.989ZM41.2567 36.173H44.6807L44.6487 40.141H48.5847V43.277H44.6167L44.5527 50.957C44.5527 51.8743 44.7127 52.525 45.0327 52.909C45.3527 53.2716 45.9287 53.453 46.7607 53.453C47.422 53.453 48.03 53.3676 48.5847 53.197V56.205C47.9447 56.4396 47.1127 56.557 46.0887 56.557C44.4033 56.557 43.1553 56.1623 42.3447 55.373C41.534 54.5836 41.1393 53.357 41.1607 51.693L41.2247 43.277H38.3767V40.141H41.2247L41.2567 36.173ZM52.0177 40.141H55.4097V56.333H52.0177V40.141ZM53.7137 33.133C54.3323 33.0903 54.855 33.3036 55.2817 33.773C55.7297 34.2423 55.943 34.7543 55.9217 35.309C55.9217 35.8636 55.7083 36.365 55.2817 36.813C54.8123 37.197 54.2897 37.3996 53.7137 37.421C53.1377 37.421 52.615 37.2183 52.1457 36.813C51.6977 36.4076 51.495 35.9063 51.5377 35.309C51.5377 34.6903 51.751 34.1783 52.1777 33.773C52.6043 33.3463 53.1163 33.133 53.7137 33.133ZM61.2292 42.157C62.8078 40.5783 64.8025 39.789 67.2132 39.789C69.6238 39.789 71.6185 40.5783 73.1972 42.157C74.7758 43.7356 75.5652 45.7623 75.5652 48.237C75.5652 50.7116 74.7758 52.7383 73.1972 54.317C71.6185 55.8956 69.6238 56.685 67.2132 56.685C64.8025 56.685 62.8078 55.8956 61.2292 54.317C59.6718 52.7596 58.8932 50.733 58.8932 48.237C58.8932 45.741 59.6718 43.7143 61.2292 42.157ZM70.7012 44.429C69.8265 43.4263 68.6745 42.925 67.2452 42.925C65.8158 42.925 64.6532 43.4263 63.7572 44.429C62.8612 45.4103 62.4132 46.6796 62.4132 48.237C62.4132 49.7943 62.8612 51.0636 63.7572 52.045C64.6532 53.0476 65.8158 53.549 67.2452 53.549C68.6745 53.549 69.8265 53.0476 70.7012 52.045C71.5972 51.0636 72.0452 49.7943 72.0452 48.237C72.0452 46.6796 71.5972 45.4103 70.7012 44.429ZM86.6329 39.789C88.2969 39.789 89.5876 40.333 90.5049 41.421C91.4223 42.509 91.8809 43.981 91.8809 45.837V56.333H88.4569V46.509C88.4569 45.3996 88.2116 44.557 87.7209 43.981C87.2516 43.405 86.5796 43.117 85.7049 43.117C84.7023 43.117 83.8916 43.5223 83.2729 44.333C82.6756 45.1436 82.3769 46.2743 82.3769 47.725V56.333H78.9849V40.141H81.9289L82.1849 42.317C83.0809 40.6316 84.5636 39.789 86.6329 39.789Z" fill="black"/>
<path d="M112.174 40.109L109.006 50.061L108.686 51.469L108.366 50.061L105.198 40.109H100.718L106.478 56.141L104.014 63.213H108.334L116.686 40.109H112.174ZM126.341 39.757C123.877 39.757 121.861 40.557 120.261 42.125C118.661 43.693 117.861 45.709 117.861 48.205C117.861 50.701 118.661 52.749 120.261 54.317C121.861 55.885 123.877 56.685 126.341 56.685C128.805 56.685 130.853 55.885 132.453 54.317C134.085 52.749 134.885 50.701 134.885 48.205C134.885 45.709 134.085 43.693 132.453 42.125C130.853 40.557 128.805 39.757 126.341 39.757ZM126.373 43.533C128.901 43.533 130.565 45.485 130.565 48.205C130.565 50.893 128.837 52.877 126.373 52.877C125.125 52.877 124.133 52.429 123.333 51.565C122.533 50.669 122.149 49.549 122.149 48.205C122.149 46.861 122.533 45.741 123.333 44.877C124.133 43.981 125.125 43.533 126.373 43.533ZM147.162 40.109V48.813C147.162 51.341 146.01 52.653 144.378 52.653C142.842 52.653 142.074 51.661 142.074 49.709V40.109H137.914V50.637C137.914 54.381 139.706 56.685 143.13 56.685C145.146 56.685 146.554 55.853 147.418 54.221L147.738 56.333H151.29V40.109H147.162ZM162.045 32.973V56.333H166.205V32.973H162.045ZM170.67 40.109V56.333H174.83V40.109H170.67ZM172.75 32.877C171.342 32.877 170.222 33.965 170.222 35.341C170.222 36.749 171.342 37.805 172.75 37.805C174.158 37.805 175.278 36.749 175.278 35.341C175.278 33.965 174.126 32.877 172.75 32.877ZM179.327 32.973V56.333H183.487V52.685L185.503 50.125L189.279 56.333H194.015L188.415 46.925L193.183 40.109H188.223L183.487 46.669V32.973H179.327ZM202.925 39.757C200.525 39.757 198.605 40.557 197.101 42.157C195.597 43.725 194.861 45.773 194.861 48.237C194.861 50.765 195.597 52.813 197.069 54.381C198.573 55.917 200.525 56.685 202.925 56.685C206.797 56.685 209.325 54.733 210.349 51.245H206.317C205.837 52.493 204.749 53.133 203.053 53.133C200.781 53.133 199.277 51.661 199.149 49.485H210.445V48.205C210.445 42.669 207.405 39.757 202.925 39.757ZM199.181 46.605C199.405 44.589 200.781 43.213 202.829 43.213C204.877 43.213 206.221 44.557 206.253 46.605H199.181Z" fill="#0068FC"/>
</svg>
