<svg width="79" height="17" viewBox="0 0 79 17" fill="none" xmlns="http://www.w3.org/2000/svg">
<path d="M76.1039 8.89062L76.5989 8.39565L77.0938 8.89062L76.5989 9.3856L76.1039 8.89062ZM66.1039 9.59062C65.7173 9.59062 65.4039 9.27722 65.4039 8.89062C65.4039 8.50403 65.7173 8.19063 66.1039 8.19063V9.59062ZM72.5989 4.39565L76.5989 8.39565L75.6089 9.3856L71.6089 5.3856L72.5989 4.39565ZM76.5989 9.3856L72.5989 13.3856L71.6089 12.3957L75.6089 8.39565L76.5989 9.3856ZM76.1039 9.59062H66.1039V8.19063H76.1039V9.59062Z" fill="#4CA852"/>
<path d="M0.838529 4.69562H1.99353L4.39153 11.5706L6.77853 4.69562H7.93353L4.98553 12.8906H3.79753L0.838529 4.69562ZM8.84644 6.96162H9.86944V12.8906H8.84644V6.96162ZM8.72544 5.37762C8.72544 5.18696 8.78411 5.03296 8.90144 4.91562C9.01878 4.79829 9.17278 4.73962 9.36344 4.73962C9.55411 4.73962 9.70811 4.79829 9.82544 4.91562C9.94278 5.03296 10.0014 5.18696 10.0014 5.37762C10.0014 5.56829 9.94278 5.72229 9.82544 5.83962C9.70811 5.95696 9.55411 6.01562 9.36344 6.01562C9.17278 6.01562 9.01878 5.95696 8.90144 5.83962C8.78411 5.72229 8.72544 5.56829 8.72544 5.37762ZM14.1848 13.0226C13.6275 13.0226 13.1215 12.887 12.6668 12.6156C12.2121 12.3443 11.8565 11.974 11.5998 11.5046C11.3431 11.028 11.2148 10.4963 11.2148 9.90962C11.2148 9.32296 11.3395 8.79496 11.5888 8.32562C11.8455 7.85629 12.1901 7.48962 12.6228 7.22562C13.0628 6.96162 13.5541 6.82963 14.0968 6.82963C14.6615 6.82963 15.1528 6.96162 15.5708 7.22562C15.9961 7.48962 16.3188 7.84162 16.5388 8.28162C16.7661 8.71429 16.8798 9.17996 16.8798 9.67862C16.8798 9.84729 16.8615 10.0306 16.8248 10.2286H12.2928C12.3075 10.6026 12.4028 10.929 12.5788 11.2076C12.7548 11.4863 12.9821 11.7026 13.2608 11.8566C13.5468 12.0106 13.8585 12.0876 14.1958 12.0876C14.9145 12.0876 15.4681 11.7613 15.8568 11.1086L16.7148 11.5486C16.5241 11.974 16.2015 12.326 15.7468 12.6046C15.2921 12.8833 14.7715 13.0226 14.1848 13.0226ZM15.7688 9.34862C15.7541 8.88662 15.5855 8.50529 15.2628 8.20462C14.9475 7.89662 14.5588 7.74262 14.0968 7.74262C13.6421 7.74262 13.2498 7.88929 12.9198 8.18262C12.5898 8.46862 12.3881 8.85729 12.3148 9.34862H15.7688ZM17.5426 6.96162H18.6756L20.0946 11.3066L21.4806 6.96162H22.4486L23.8346 11.3066L25.2646 6.96162H26.3866L24.3516 12.8906H23.3726L21.9646 8.42462L20.5566 12.8906H19.5776L17.5426 6.96162ZM29.2029 6.96162H30.2039V7.69862C30.3726 7.41996 30.5999 7.20729 30.8859 7.06062C31.1792 6.90662 31.5019 6.82963 31.8539 6.82963C32.2572 6.82963 32.6239 6.92862 32.9539 7.12662C33.2912 7.31729 33.5479 7.57762 33.7239 7.90762C33.9146 7.56296 34.1712 7.29896 34.4939 7.11562C34.8239 6.92496 35.1869 6.82963 35.5829 6.82963C35.9862 6.82963 36.3566 6.92862 36.6939 7.12662C37.0312 7.31729 37.2989 7.58129 37.4969 7.91862C37.6949 8.25596 37.7939 8.63362 37.7939 9.05162V12.8906H36.7599V9.38162C36.7599 8.89762 36.6316 8.51629 36.3749 8.23762C36.1256 7.95896 35.7992 7.81962 35.3959 7.81962C34.9852 7.81962 34.6516 7.96262 34.3949 8.24862C34.1382 8.52729 34.0099 8.90496 34.0099 9.38162V12.8906H32.9759V9.38162C32.9759 8.89762 32.8512 8.51629 32.6019 8.23762C32.3526 7.95896 32.0226 7.81962 31.6119 7.81962C31.2086 7.81962 30.8749 7.96262 30.6109 8.24862C30.3542 8.52729 30.2259 8.90496 30.2259 9.38162V12.8906H29.2029V6.96162ZM42.0628 13.0226C41.4982 13.0226 40.9812 12.8906 40.5118 12.6266C40.0498 12.3553 39.6832 11.985 39.4118 11.5156C39.1405 11.039 39.0048 10.5073 39.0048 9.92062C39.0048 9.34129 39.1368 8.81696 39.4008 8.34762C39.6722 7.87096 40.0388 7.50062 40.5008 7.23663C40.9702 6.96529 41.4908 6.82963 42.0628 6.82963C42.6275 6.82963 43.1408 6.96529 43.6028 7.23663C44.0722 7.50062 44.4388 7.86729 44.7028 8.33662C44.9742 8.80596 45.1098 9.33396 45.1098 9.92062C45.1098 10.5146 44.9742 11.0463 44.7028 11.5156C44.4315 11.985 44.0612 12.3553 43.5918 12.6266C43.1298 12.8906 42.6202 13.0226 42.0628 13.0226ZM40.0828 9.92062C40.0828 10.3166 40.1672 10.676 40.3358 10.9986C40.5118 11.3213 40.7502 11.5743 41.0508 11.7576C41.3588 11.941 41.6962 12.0326 42.0628 12.0326C42.4222 12.0326 42.7522 11.941 43.0528 11.7576C43.3535 11.5743 43.5882 11.3213 43.7568 10.9986C43.9328 10.676 44.0208 10.3166 44.0208 9.92062C44.0208 9.52462 43.9328 9.16896 43.7568 8.85362C43.5882 8.53096 43.3535 8.27796 43.0528 8.09462C42.7522 7.91129 42.4222 7.81962 42.0628 7.81962C41.6962 7.81962 41.3588 7.91129 41.0508 8.09462C40.7502 8.27796 40.5118 8.53096 40.3358 8.85362C40.1672 9.16896 40.0828 9.52462 40.0828 9.92062ZM46.4441 6.96162H47.4451V7.66562C47.7531 7.15229 48.2774 6.89562 49.0181 6.89562H49.3811V7.86362H48.8641C48.4388 7.86362 48.0978 7.99562 47.8411 8.25962C47.5918 8.52362 47.4671 8.89029 47.4671 9.35962V12.8906H46.4441V6.96162ZM53.0178 13.0226C52.4605 13.0226 51.9545 12.887 51.4998 12.6156C51.0451 12.3443 50.6895 11.974 50.4328 11.5046C50.1761 11.028 50.0478 10.4963 50.0478 9.90962C50.0478 9.32296 50.1725 8.79496 50.4218 8.32562C50.6785 7.85629 51.0231 7.48962 51.4558 7.22562C51.8958 6.96162 52.3871 6.82963 52.9298 6.82963C53.4945 6.82963 53.9858 6.96162 54.4038 7.22562C54.8291 7.48962 55.1518 7.84162 55.3718 8.28162C55.5991 8.71429 55.7128 9.17996 55.7128 9.67862C55.7128 9.84729 55.6945 10.0306 55.6578 10.2286H51.1258C51.1405 10.6026 51.2358 10.929 51.4118 11.2076C51.5878 11.4863 51.8151 11.7026 52.0938 11.8566C52.3798 12.0106 52.6915 12.0876 53.0288 12.0876C53.7475 12.0876 54.3011 11.7613 54.6898 11.1086L55.5478 11.5486C55.3571 11.974 55.0345 12.326 54.5798 12.6046C54.1251 12.8833 53.6045 13.0226 53.0178 13.0226ZM54.6018 9.34862C54.5871 8.88662 54.4185 8.50529 54.0958 8.20462C53.7805 7.89662 53.3918 7.74262 52.9298 7.74262C52.4751 7.74262 52.0828 7.88929 51.7528 8.18262C51.4228 8.46862 51.2211 8.85729 51.1478 9.34862H54.6018Z" fill="#4CA852"/>
</svg>
